<svg xmlns="http://www.w3.org/2000/svg" width="44.624" height="30.702" viewBox="0 0 44.624 30.702">
  <g id="Vector_Smart_Object" data-name="Vector Smart Object" transform="translate(-1435.302 -2747.786)">
    <g id="Vector_Smart_Object-2" data-name="Vector Smart Object">
      <g id="Group_81" data-name="Group 81">
        <g id="Group_80" data-name="Group 80">
          <path id="Path_1128" data-name="Path 1128" d="M1436.636,2778.476a1.448,1.448,0,0,0,.832-.14c2.87-1.409,3.481-4.036,3.968-6.149.477-2.073.817-3.277,2.29-4,1.491-.729,2.588-.22,4.393.722,1.847.959,4.136,2.165,7.018.746,2.875-1.4,3.475-4.031,3.962-6.144.477-2.073.822-3.277,2.3-4,1.456-.716,2.565-.212,4.376.725,1.851.971,4.147,2.166,7.017.752s3.475-4.031,3.962-6.144c.482-2.067.822-3.277,2.295-4a1.636,1.636,0,0,0,.734-2.132,1.484,1.484,0,0,0-2.019-.772c-2.875,1.408-3.475,4.037-3.962,6.144-.477,2.073-.817,3.277-2.29,4-1.472.708-2.566.223-4.381-.726-1.852-.966-4.152-2.167-7.017-.757s-3.481,4.036-3.963,6.15c-.477,2.073-.822,3.277-2.3,4-1.49.723-2.582.215-4.382-.72-1.858-.961-4.159-2.156-7.022-.758-2.877,1.419-3.482,4.042-3.975,6.154-.472,2.074-.817,3.277-2.29,4a1.643,1.643,0,0,0-.74,2.132A1.542,1.542,0,0,0,1436.636,2778.476Z" fill="#262626"/>
        </g>
      </g>
    </g>
    <path id="Color_Overlay" data-name="Color Overlay" d="M1436.637,2778.476a1.543,1.543,0,0,1-1.193-.913,1.645,1.645,0,0,1,.74-2.132c1.473-.725,1.818-1.929,2.291-4,.492-2.112,1.1-4.735,3.974-6.154,2.863-1.4,5.164-.2,7.022.759,1.8.935,2.892,1.444,4.382.72,1.473-.726,1.818-1.929,2.3-4,.482-2.113,1.086-4.736,3.963-6.15s5.165-.208,7.016.758c1.815.948,2.91,1.434,4.381.725,1.474-.724,1.813-1.929,2.29-4,.487-2.107,1.087-4.736,3.963-6.144a1.483,1.483,0,0,1,2.019.772,1.636,1.636,0,0,1-.734,2.132c-1.473.719-1.813,1.93-2.295,4-.488,2.113-1.088,4.742-3.963,6.144s-5.166.22-7.017-.752c-1.811-.937-2.92-1.441-4.376-.724-1.473.724-1.818,1.929-2.3,4-.487,2.113-1.087,4.742-3.962,6.144-2.883,1.418-5.171.213-7.018-.746-1.8-.942-2.9-1.451-4.393-.722-1.473.725-1.813,1.93-2.291,4-.487,2.113-1.1,4.74-3.968,6.15a1.473,1.473,0,0,1-.646.152A1.422,1.422,0,0,1,1436.637,2778.476Z" fill="#71cf93"/>
  </g>
</svg>
