<svg xmlns="http://www.w3.org/2000/svg" xmlns:xlink="http://www.w3.org/1999/xlink" width="644" height="548.457" viewBox="0 0 644 548.457">
  <defs>
    <clipPath id="clip-path">
      <rect id="Rectangle_527" data-name="Rectangle 527" width="64" height="64" rx="6" transform="translate(1580 6792)" fill="#fff"/>
    </clipPath>
  </defs>
  <g id="Group_3328" data-name="Group 3328" transform="translate(-901 -6127)">
    <g id="Group_3322" data-name="Group 3322" transform="translate(815.262 6015.161)">
      <g id="Group_3270" data-name="Group 3270" transform="translate(138.106 503.733)">
        <g id="Group_3269" data-name="Group 3269">
          <g id="Group_3266" data-name="Group 3266" transform="translate(27.523)">
            <g id="Group_3265" data-name="Group 3265">
              <path id="Path_5601" data-name="Path 5601" d="M252.387,702.646V692.095L239.095,688.4a33.554,33.554,0,0,0-3.186-7.784l6.766-11.971-7.46-7.461-11.9,6.727a33.557,33.557,0,0,0-7.892-3.286l-3.654-13.154H201.215l-3.654,13.154a33.556,33.556,0,0,0-7.892,3.286l-11.9-6.727-7.46,7.461,6.766,11.971a33.576,33.576,0,0,0-3.187,7.784l-13.292,3.692v10.551l13.4,3.722a33.56,33.56,0,0,0,3.178,7.58l-6.865,12.146,7.46,7.461,12.215-6.9a33.539,33.539,0,0,0,7.474,3.083l3.759,13.534h10.551l3.759-13.534A33.545,33.545,0,0,0,223,726.65l12.215,6.9,7.46-7.461-6.865-12.146a33.565,33.565,0,0,0,3.182-7.581Zm-45.9,14.6a20.047,20.047,0,1,1,20.047-20.046A20.046,20.046,0,0,1,206.491,717.241Z" transform="translate(-160.595 -651.474)" fill="#e8efea"/>
            </g>
          </g>
          <g id="Group_3268" data-name="Group 3268" transform="translate(0 7.88)">
            <g id="Group_3267" data-name="Group 3267">
              <path id="Path_5602" data-name="Path 5602" d="M112.77,700.767l1.054-4.486-5.283-2.9a14.657,14.657,0,0,0-.578-3.628l4.072-4.415-2.428-3.917-5.733,1.672a14.663,14.663,0,0,0-3.028-2.185l-.24-5.958L96.119,673.9l-2.867,5.229a14.672,14.672,0,0,0-3.684.609l-4.389-4.049-3.917,2.428,1.682,5.766a14.66,14.66,0,0,0-2.132,2.992l-6.021.243L73.738,691.6l5.326,2.92a14.669,14.669,0,0,0,.595,3.541l-4.132,4.479,2.428,3.917,5.883-1.716a14.647,14.647,0,0,0,2.87,2.057l.248,6.13,4.486,1.053,2.949-5.379a14.654,14.654,0,0,0,3.486-.565l4.5,4.155,3.917-2.428-1.706-5.85a14.675,14.675,0,0,0,2.11-2.906ZM91.8,702.391a8.756,8.756,0,1,1,10.526-6.523A8.756,8.756,0,0,1,91.8,702.391Z" transform="translate(394.262 -630.899)" fill="#e8efea"/>
            </g>
          </g>
        </g>
      </g>
      <g id="Group_3273" data-name="Group 3273" transform="translate(168.106 228.473)">
        <rect id="Rectangle_502" data-name="Rectangle 502" width="0.943" height="297.08" transform="translate(111.076)" fill="#d3e5d9" opacity="0.5"/>
        <g id="Group_3271" data-name="Group 3271" transform="translate(0 13.724)" opacity="0.5">
          <path id="Path_5603" data-name="Path 5603" d="M229.026,326.821h0a3.7,3.7,0,0,1-3.7-3.7h0a3.7,3.7,0,0,1,3.7-3.7h0a3.7,3.7,0,0,1,3.7,3.7h0A3.7,3.7,0,0,1,229.026,326.821Z" transform="translate(-225.325 -319.419)" fill="#c3dbcb"/>
          <rect id="Rectangle_503" data-name="Rectangle 503" width="33.839" height="3.777" rx="1.888" transform="translate(10.272 1.661)" fill="#d3e5d9"/>
          <path id="Path_5604" data-name="Path 5604" d="M229.026,393.554h0a3.7,3.7,0,0,1-3.7-3.7h0a3.7,3.7,0,0,1,3.7-3.7h0a3.7,3.7,0,0,1,3.7,3.7h0A3.7,3.7,0,0,1,229.026,393.554Z" transform="translate(-225.325 -344.608)" fill="#c3dbcb"/>
          <rect id="Rectangle_504" data-name="Rectangle 504" width="33.839" height="3.777" rx="1.888" transform="translate(10.272 43.205)" fill="#d3e5d9"/>
          <path id="Path_5605" data-name="Path 5605" d="M229.026,480.428h0a3.7,3.7,0,0,1-3.7-3.7h0a3.7,3.7,0,0,1,3.7-3.7h0a3.7,3.7,0,0,1,3.7,3.7h0A3.7,3.7,0,0,1,229.026,480.428Z" transform="translate(-225.325 -377.4)" fill="#c3dbcb"/>
          <rect id="Rectangle_505" data-name="Rectangle 505" width="33.839" height="3.777" rx="1.888" transform="translate(10.272 97.287)" fill="#d3e5d9"/>
          <path id="Path_5606" data-name="Path 5606" d="M229.026,502.875h0a3.7,3.7,0,0,1-3.7-3.7h0a3.7,3.7,0,0,1,3.7-3.7h0a3.7,3.7,0,0,1,3.7,3.7h0A3.7,3.7,0,0,1,229.026,502.875Z" transform="translate(-225.325 -385.873)" fill="#c3dbcb"/>
          <rect id="Rectangle_506" data-name="Rectangle 506" width="33.839" height="3.777" rx="1.888" transform="translate(10.272 111.261)" fill="#d3e5d9"/>
          <path id="Path_5607" data-name="Path 5607" d="M245.527,344.293h0a3.7,3.7,0,0,1-3.7-3.7h0a3.7,3.7,0,0,1,3.7-3.7h0a3.7,3.7,0,0,1,3.7,3.7h0A3.7,3.7,0,0,1,245.527,344.293Z" transform="translate(-231.554 -326.014)" fill="#c3dbcb"/>
          <rect id="Rectangle_507" data-name="Rectangle 507" width="33.839" height="3.777" rx="1.888" transform="translate(20.545 12.538)" fill="#d3e5d9"/>
          <path id="Path_5608" data-name="Path 5608" d="M245.527,361.765h0a3.7,3.7,0,0,1-3.7-3.7h0a3.7,3.7,0,0,1,3.7-3.7h0a3.7,3.7,0,0,1,3.7,3.7h0A3.7,3.7,0,0,1,245.527,361.765Z" transform="translate(-231.554 -332.609)" fill="#c3dbcb"/>
          <rect id="Rectangle_508" data-name="Rectangle 508" width="46.68" height="3.777" rx="1.888" transform="translate(20.545 23.415)" fill="#d3e5d9"/>
          <path id="Path_5609" data-name="Path 5609" d="M245.527,410.3h0a3.7,3.7,0,0,1-3.7-3.7h0a3.7,3.7,0,0,1,3.7-3.7h0a3.7,3.7,0,0,1,3.7,3.7h0A3.7,3.7,0,0,1,245.527,410.3Z" transform="translate(-231.554 -350.928)" fill="#c3dbcb"/>
          <rect id="Rectangle_509" data-name="Rectangle 509" width="56.801" height="3.777" rx="1.888" transform="translate(20.545 53.629)" fill="#d3e5d9"/>
          <path id="Path_5610" data-name="Path 5610" d="M245.527,427.77h0a3.7,3.7,0,0,1-3.7-3.7h0a3.7,3.7,0,0,1,3.7-3.7h0a3.7,3.7,0,0,1,3.7,3.7h0A3.7,3.7,0,0,1,245.527,427.77Z" transform="translate(-231.554 -357.523)" fill="#c3dbcb"/>
          <rect id="Rectangle_510" data-name="Rectangle 510" width="38.371" height="3.777" rx="1.888" transform="translate(20.545 64.506)" fill="#d3e5d9"/>
          <path id="Path_5611" data-name="Path 5611" d="M261.248,444.652h0a2.921,2.921,0,0,1-2.921-2.921h0a2.921,2.921,0,0,1,2.921-2.921h0a2.921,2.921,0,0,1,2.922,2.921h0A2.921,2.921,0,0,1,261.248,444.652Z" transform="translate(-237.782 -364.485)" fill="#c3dbcb"/>
          <path id="Path_5612" data-name="Path 5612" d="M333.057,443.9H272.841a1.49,1.49,0,0,1-1.49-1.491h0a1.49,1.49,0,0,1,1.49-1.49h60.215a1.491,1.491,0,0,1,1.49,1.49h0A1.491,1.491,0,0,1,333.057,443.9Z" transform="translate(-242.698 -365.28)" fill="#d3e5d9"/>
          <path id="Path_5613" data-name="Path 5613" d="M261.248,458.442h0a2.921,2.921,0,0,1-2.921-2.921h0a2.921,2.921,0,0,1,2.921-2.921h0a2.921,2.921,0,0,1,2.922,2.921h0A2.921,2.921,0,0,1,261.248,458.442Z" transform="translate(-237.782 -369.69)" fill="#c3dbcb"/>
          <path id="Path_5614" data-name="Path 5614" d="M308.432,457.687H272.841a1.49,1.49,0,0,1-1.49-1.49h0a1.49,1.49,0,0,1,1.49-1.49h35.591a1.49,1.49,0,0,1,1.49,1.49h0A1.49,1.49,0,0,1,308.432,457.687Z" transform="translate(-242.698 -370.485)" fill="#d3e5d9"/>
        </g>
        <g id="Group_3272" data-name="Group 3272" transform="translate(0 138.96)" opacity="0.5">
          <path id="Path_5615" data-name="Path 5615" d="M229.026,527.991h0a3.7,3.7,0,0,1-3.7-3.7h0a3.7,3.7,0,0,1,3.7-3.7h0a3.7,3.7,0,0,1,3.7,3.7h0A3.7,3.7,0,0,1,229.026,527.991Z" transform="translate(-225.325 -520.589)" fill="#c3dbcb"/>
          <rect id="Rectangle_511" data-name="Rectangle 511" width="33.839" height="3.777" rx="1.888" transform="translate(10.272 1.662)" fill="#d3e5d9"/>
          <path id="Path_5616" data-name="Path 5616" d="M229.026,594.724h0a3.7,3.7,0,0,1-3.7-3.7h0a3.7,3.7,0,0,1,3.7-3.7h0a3.7,3.7,0,0,1,3.7,3.7h0A3.7,3.7,0,0,1,229.026,594.724Z" transform="translate(-225.325 -545.778)" fill="#c3dbcb"/>
          <rect id="Rectangle_512" data-name="Rectangle 512" width="33.839" height="3.777" rx="1.888" transform="translate(10.272 43.205)" fill="#d3e5d9"/>
          <path id="Path_5617" data-name="Path 5617" d="M229.026,681.6h0a3.7,3.7,0,0,1-3.7-3.7h0a3.7,3.7,0,0,1,3.7-3.7h0a3.7,3.7,0,0,1,3.7,3.7h0A3.7,3.7,0,0,1,229.026,681.6Z" transform="translate(-225.325 -578.57)" fill="#c3dbcb"/>
          <rect id="Rectangle_513" data-name="Rectangle 513" width="33.839" height="3.777" rx="1.888" transform="translate(10.272 97.287)" fill="#d3e5d9"/>
          <path id="Path_5618" data-name="Path 5618" d="M229.026,704.045h0a3.7,3.7,0,0,1-3.7-3.7h0a3.7,3.7,0,0,1,3.7-3.7h0a3.7,3.7,0,0,1,3.7,3.7h0A3.7,3.7,0,0,1,229.026,704.045Z" transform="translate(-225.325 -587.043)" fill="#c3dbcb"/>
          <rect id="Rectangle_514" data-name="Rectangle 514" width="33.839" height="3.777" rx="1.888" transform="translate(10.272 111.261)" fill="#d3e5d9"/>
          <path id="Path_5619" data-name="Path 5619" d="M245.527,545.463h0a3.7,3.7,0,0,1-3.7-3.7h0a3.7,3.7,0,0,1,3.7-3.7h0a3.7,3.7,0,0,1,3.7,3.7h0A3.7,3.7,0,0,1,245.527,545.463Z" transform="translate(-231.554 -527.184)" fill="#c3dbcb"/>
          <rect id="Rectangle_515" data-name="Rectangle 515" width="33.839" height="3.777" rx="1.888" transform="translate(20.545 12.538)" fill="#d3e5d9"/>
          <path id="Path_5620" data-name="Path 5620" d="M245.527,562.935h0a3.7,3.7,0,0,1-3.7-3.7h0a3.7,3.7,0,0,1,3.7-3.7h0a3.7,3.7,0,0,1,3.7,3.7h0A3.7,3.7,0,0,1,245.527,562.935Z" transform="translate(-231.554 -533.779)" fill="#c3dbcb"/>
          <rect id="Rectangle_516" data-name="Rectangle 516" width="46.68" height="3.777" rx="1.888" transform="translate(20.545 23.415)" fill="#d3e5d9"/>
          <path id="Path_5621" data-name="Path 5621" d="M245.527,611.468h0a3.7,3.7,0,0,1-3.7-3.7h0a3.7,3.7,0,0,1,3.7-3.7h0a3.7,3.7,0,0,1,3.7,3.7h0A3.7,3.7,0,0,1,245.527,611.468Z" transform="translate(-231.554 -552.099)" fill="#c3dbcb"/>
          <rect id="Rectangle_517" data-name="Rectangle 517" width="56.801" height="3.777" rx="1.888" transform="translate(20.545 53.629)" fill="#d3e5d9"/>
          <path id="Path_5622" data-name="Path 5622" d="M245.527,628.94h0a3.7,3.7,0,0,1-3.7-3.7h0a3.7,3.7,0,0,1,3.7-3.7h0a3.7,3.7,0,0,1,3.7,3.7h0A3.7,3.7,0,0,1,245.527,628.94Z" transform="translate(-231.554 -558.693)" fill="#c3dbcb"/>
          <rect id="Rectangle_518" data-name="Rectangle 518" width="38.371" height="3.777" rx="1.888" transform="translate(20.545 64.506)" fill="#d3e5d9"/>
          <path id="Path_5623" data-name="Path 5623" d="M261.248,645.822h0a2.921,2.921,0,0,1-2.921-2.922h0a2.921,2.921,0,0,1,2.921-2.921h0a2.921,2.921,0,0,1,2.922,2.921h0A2.921,2.921,0,0,1,261.248,645.822Z" transform="translate(-237.782 -565.655)" fill="#c3dbcb"/>
          <path id="Path_5624" data-name="Path 5624" d="M333.057,645.068H272.841a1.49,1.49,0,0,1-1.49-1.49h0a1.49,1.49,0,0,1,1.49-1.49h60.215a1.491,1.491,0,0,1,1.49,1.49h0A1.491,1.491,0,0,1,333.057,645.068Z" transform="translate(-242.698 -566.45)" fill="#d3e5d9"/>
          <path id="Path_5625" data-name="Path 5625" d="M261.248,659.612h0a2.921,2.921,0,0,1-2.921-2.921h0a2.921,2.921,0,0,1,2.921-2.921h0a2.921,2.921,0,0,1,2.922,2.921h0A2.921,2.921,0,0,1,261.248,659.612Z" transform="translate(-237.782 -570.86)" fill="#c3dbcb"/>
          <path id="Path_5626" data-name="Path 5626" d="M308.432,658.858H272.841a1.49,1.49,0,0,1-1.49-1.49h0a1.49,1.49,0,0,1,1.49-1.49h35.591a1.49,1.49,0,0,1,1.49,1.49h0A1.49,1.49,0,0,1,308.432,658.858Z" transform="translate(-242.698 -571.656)" fill="#d3e5d9"/>
        </g>
        <path id="Path_5627" data-name="Path 5627" d="M422.705,321.465h0a3.014,3.014,0,0,1-3.014-3.014h0a3.015,3.015,0,0,1,3.014-3.015h0a3.015,3.015,0,0,1,3.015,3.015h0A3.015,3.015,0,0,1,422.705,321.465Z" transform="translate(-298.691 -304.191)" fill="#bfddca" opacity="0.5"/>
        <path id="Path_5628" data-name="Path 5628" d="M477.05,321.465H446.834a3.014,3.014,0,0,1-3.014-3.014h0a3.015,3.015,0,0,1,3.014-3.015H477.05a3.015,3.015,0,0,1,3.014,3.015h0A3.014,3.014,0,0,1,477.05,321.465Z" transform="translate(-307.799 -304.191)" fill="#bfddca" opacity="0.5"/>
        <path id="Path_5629" data-name="Path 5629" d="M579.517,321.465H519.44a3.014,3.014,0,0,1-3.014-3.014h0a3.015,3.015,0,0,1,3.014-3.015h60.077a3.015,3.015,0,0,1,3.015,3.015h0A3.015,3.015,0,0,1,579.517,321.465Z" transform="translate(-335.205 -304.191)" fill="#e2ede6" opacity="0.5"/>
        <path id="Path_5630" data-name="Path 5630" d="M422.705,349.968h0a3.014,3.014,0,0,1-3.014-3.014h0a3.014,3.014,0,0,1,3.014-3.014h0a3.015,3.015,0,0,1,3.015,3.014h0A3.015,3.015,0,0,1,422.705,349.968Z" transform="translate(-298.691 -314.95)" fill="#bfddca" opacity="0.5"/>
        <path id="Path_5631" data-name="Path 5631" d="M531.135,349.968h-84.3a3.014,3.014,0,0,1-3.014-3.014h0a3.014,3.014,0,0,1,3.014-3.014h84.3a3.014,3.014,0,0,1,3.014,3.014h0A3.014,3.014,0,0,1,531.135,349.968Z" transform="translate(-307.799 -314.95)" fill="#9accae" opacity="0.5"/>
        <path id="Path_5632" data-name="Path 5632" d="M759.664,349.968H606.318a3.015,3.015,0,0,1-3.015-3.014h0a3.015,3.015,0,0,1,3.015-3.014H759.664a3.015,3.015,0,0,1,3.015,3.014h0A3.015,3.015,0,0,1,759.664,349.968Z" transform="translate(-367.998 -314.95)" fill="#bfddca" opacity="0.5"/>
        <path id="Path_5633" data-name="Path 5633" d="M422.705,378.47h0a3.015,3.015,0,0,1-3.014-3.015h0a3.014,3.014,0,0,1,3.014-3.014h0a3.015,3.015,0,0,1,3.015,3.014h0A3.015,3.015,0,0,1,422.705,378.47Z" transform="translate(-298.691 -325.708)" fill="#bfddca" opacity="0.5"/>
        <rect id="Rectangle_519" data-name="Rectangle 519" width="36.245" height="6.029" rx="3.015" transform="translate(136.021 46.732)" fill="#9accae" opacity="0.5"/>
        <path id="Path_5634" data-name="Path 5634" d="M422.705,406.972h0a3.015,3.015,0,0,1-3.014-3.015h0a3.014,3.014,0,0,1,3.014-3.014h0a3.015,3.015,0,0,1,3.015,3.014h0A3.015,3.015,0,0,1,422.705,406.972Z" transform="translate(-298.691 -336.467)" fill="#bfddca" opacity="0.5"/>
        <path id="Path_5635" data-name="Path 5635" d="M461.781,406.972H446.834a3.015,3.015,0,0,1-3.014-3.015h0a3.014,3.014,0,0,1,3.014-3.014h14.946a3.014,3.014,0,0,1,3.014,3.014h0A3.015,3.015,0,0,1,461.781,406.972Z" transform="translate(-307.799 -336.467)" fill="#e2ede6" opacity="0.5"/>
        <path id="Path_5636" data-name="Path 5636" d="M549.283,406.972h-54.37a3.015,3.015,0,0,1-3.014-3.015h0a3.014,3.014,0,0,1,3.014-3.014h54.37a3.015,3.015,0,0,1,3.014,3.014h0A3.015,3.015,0,0,1,549.283,406.972Z" transform="translate(-325.947 -336.577)" fill="#d3e5d9" opacity="0.5"/>
        <path id="Path_5637" data-name="Path 5637" d="M422.705,435.474h0a3.014,3.014,0,0,1-3.014-3.014h0a3.015,3.015,0,0,1,3.014-3.015h0a3.015,3.015,0,0,1,3.015,3.015h0A3.015,3.015,0,0,1,422.705,435.474Z" transform="translate(-298.691 -347.225)" fill="#bfddca" opacity="0.5"/>
        <path id="Path_5638" data-name="Path 5638" d="M506.161,435.474H475.945a3.014,3.014,0,0,1-3.014-3.014h0a3.015,3.015,0,0,1,3.014-3.015h30.216a3.015,3.015,0,0,1,3.014,3.015h0A3.014,3.014,0,0,1,506.161,435.474Z" transform="translate(-318.788 -347.225)" fill="#d3e5d9" opacity="0.5"/>
        <path id="Path_5639" data-name="Path 5639" d="M622.286,435.474H548.551a3.015,3.015,0,0,1-3.015-3.014h0a3.015,3.015,0,0,1,3.015-3.015h73.735a3.015,3.015,0,0,1,3.015,3.015h0A3.015,3.015,0,0,1,622.286,435.474Z" transform="translate(-346.193 -347.225)" fill="#e7f2ea" opacity="0.5"/>
        <path id="Path_5640" data-name="Path 5640" d="M422.705,463.977h0a3.014,3.014,0,0,1-3.014-3.014h0a3.014,3.014,0,0,1,3.014-3.014h0a3.014,3.014,0,0,1,3.015,3.014h0A3.015,3.015,0,0,1,422.705,463.977Z" transform="translate(-298.691 -357.984)" fill="#bfddca" opacity="0.5"/>
        <path id="Path_5641" data-name="Path 5641" d="M741.6,463.977H475.945a3.014,3.014,0,0,1-3.014-3.014h0a3.014,3.014,0,0,1,3.014-3.014H741.6a3.014,3.014,0,0,1,3.014,3.014h0A3.014,3.014,0,0,1,741.6,463.977Z" transform="translate(-318.788 -357.984)" fill="#bfddca" opacity="0.5"/>
        <path id="Path_5642" data-name="Path 5642" d="M960.666,463.977H930.014A3.015,3.015,0,0,1,927,460.962h0a3.014,3.014,0,0,1,3.014-3.014h30.652a3.014,3.014,0,0,1,3.014,3.014h0A3.014,3.014,0,0,1,960.666,463.977Z" transform="translate(-490.183 -357.984)" fill="#ebf2ed" opacity="0.5"/>
        <path id="Path_5643" data-name="Path 5643" d="M960.666,463.171H930.014A3.015,3.015,0,0,1,927,460.156h0a3.015,3.015,0,0,1,3.014-3.014h30.652a3.014,3.014,0,0,1,3.014,3.014h0A3.015,3.015,0,0,1,960.666,463.171Z" transform="translate(-490.183 -357.68)" fill="#ebf2ed" opacity="0.5"/>
        <path id="Path_5644" data-name="Path 5644" d="M422.705,492.479h0a3.015,3.015,0,0,1-3.014-3.015h0a3.014,3.014,0,0,1,3.014-3.014h0a3.015,3.015,0,0,1,3.015,3.014h0A3.015,3.015,0,0,1,422.705,492.479Z" transform="translate(-298.691 -368.743)" fill="#bfddca" opacity="0.5"/>
        <path id="Path_5645" data-name="Path 5645" d="M422.705,520.981h0a3.015,3.015,0,0,1-3.014-3.015h0a3.014,3.014,0,0,1,3.014-3.014h0a3.015,3.015,0,0,1,3.015,3.014h0A3.015,3.015,0,0,1,422.705,520.981Z" transform="translate(-298.691 -379.501)" fill="#bfddca" opacity="0.5"/>
        <path id="Path_5646" data-name="Path 5646" d="M729.376,520.981h-220a3.015,3.015,0,0,1-3.014-3.015h0a3.014,3.014,0,0,1,3.014-3.014h220a3.015,3.015,0,0,1,3.015,3.014h0A3.015,3.015,0,0,1,729.376,520.981Z" transform="translate(-331.408 -379.501)" fill="#e7f2ea"/>
        <path id="Path_5647" data-name="Path 5647" d="M944.788,520.981H887.951a3.015,3.015,0,0,1-3.015-3.015h0a3.015,3.015,0,0,1,3.015-3.014h56.837a3.014,3.014,0,0,1,3.014,3.014h0A3.015,3.015,0,0,1,944.788,520.981Z" transform="translate(-474.305 -379.501)" fill="#bfddca" opacity="0.5"/>
        <path id="Path_5648" data-name="Path 5648" d="M422.705,549.483h0a3.014,3.014,0,0,1-3.014-3.014h0a3.015,3.015,0,0,1,3.014-3.015h0a3.015,3.015,0,0,1,3.015,3.015h0A3.015,3.015,0,0,1,422.705,549.483Z" transform="translate(-298.691 -390.26)" fill="#bfddca" opacity="0.5"/>
        <path id="Path_5649" data-name="Path 5649" d="M490.731,549.483H475.945a3.014,3.014,0,0,1-3.014-3.014h0a3.015,3.015,0,0,1,3.014-3.015h14.785a3.015,3.015,0,0,1,3.015,3.015h0A3.015,3.015,0,0,1,490.731,549.483Z" transform="translate(-318.788 -390.26)" fill="#e2ede6" opacity="0.5"/>
        <path id="Path_5650" data-name="Path 5650" d="M422.705,577.61h0a3.015,3.015,0,0,1-3.014-3.015h0a3.015,3.015,0,0,1,3.014-3.014h0a3.015,3.015,0,0,1,3.015,3.014h0A3.015,3.015,0,0,1,422.705,577.61Z" transform="translate(-298.691 -400.877)" fill="#bfddca" opacity="0.5"/>
        <path id="Path_5651" data-name="Path 5651" d="M506.161,577.61H475.945a3.015,3.015,0,0,1-3.014-3.015h0a3.015,3.015,0,0,1,3.014-3.014h30.216a3.014,3.014,0,0,1,3.014,3.014h0A3.015,3.015,0,0,1,506.161,577.61Z" transform="translate(-318.788 -400.877)" fill="#d3e5d9" opacity="0.5"/>
        <path id="Path_5652" data-name="Path 5652" d="M622.286,577.61H548.551a3.015,3.015,0,0,1-3.015-3.015h0a3.015,3.015,0,0,1,3.015-3.014h73.735A3.015,3.015,0,0,1,625.3,574.6h0A3.015,3.015,0,0,1,622.286,577.61Z" transform="translate(-346.193 -400.877)" fill="#e7f2ea"/>
        <path id="Path_5653" data-name="Path 5653" d="M422.705,606.112h0a3.015,3.015,0,0,1-3.014-3.014h0a3.015,3.015,0,0,1,3.014-3.015h0a3.015,3.015,0,0,1,3.015,3.015h0A3.015,3.015,0,0,1,422.705,606.112Z" transform="translate(-298.691 -411.635)" fill="#bfddca" opacity="0.5"/>
        <path id="Path_5654" data-name="Path 5654" d="M741.6,606.112H475.945a3.015,3.015,0,0,1-3.014-3.014h0a3.015,3.015,0,0,1,3.014-3.015H741.6a3.015,3.015,0,0,1,3.014,3.015h0A3.015,3.015,0,0,1,741.6,606.112Z" transform="translate(-318.788 -411.635)" fill="#bfddca" opacity="0.5"/>
        <path id="Path_5655" data-name="Path 5655" d="M960.666,606.112H930.014A3.015,3.015,0,0,1,927,603.1h0a3.015,3.015,0,0,1,3.014-3.015h30.652a3.015,3.015,0,0,1,3.014,3.015h0A3.015,3.015,0,0,1,960.666,606.112Z" transform="translate(-490.183 -411.635)" fill="#ebf2ed" opacity="0.5"/>
        <path id="Path_5656" data-name="Path 5656" d="M960.666,605.307H930.014A3.014,3.014,0,0,1,927,602.292h0a3.014,3.014,0,0,1,3.014-3.014h30.652a3.014,3.014,0,0,1,3.014,3.014h0A3.014,3.014,0,0,1,960.666,605.307Z" transform="translate(-490.183 -411.332)" fill="#ebf2ed" opacity="0.5"/>
        <path id="Path_5657" data-name="Path 5657" d="M422.705,634.615h0a3.015,3.015,0,0,1-3.014-3.014h0a3.014,3.014,0,0,1,3.014-3.014h0a3.015,3.015,0,0,1,3.015,3.014h0A3.015,3.015,0,0,1,422.705,634.615Z" transform="translate(-298.691 -422.394)" fill="#bfddca" opacity="0.5"/>
        <path id="Path_5658" data-name="Path 5658" d="M877.764,634.615H509.38a3.015,3.015,0,0,1-3.014-3.014h0a3.014,3.014,0,0,1,3.014-3.014H877.764a3.014,3.014,0,0,1,3.014,3.014h0A3.015,3.015,0,0,1,877.764,634.615Z" transform="translate(-331.408 -422.394)" fill="#e2ede6" opacity="0.5"/>
        <path id="Path_5659" data-name="Path 5659" d="M422.705,663.117h0a3.015,3.015,0,0,1-3.014-3.015h0a3.014,3.014,0,0,1,3.014-3.014h0a3.015,3.015,0,0,1,3.015,3.014h0A3.015,3.015,0,0,1,422.705,663.117Z" transform="translate(-298.691 -433.153)" fill="#bfddca" opacity="0.5"/>
        <path id="Path_5660" data-name="Path 5660" d="M570.808,663.117H509.38a3.015,3.015,0,0,1-3.014-3.015h0a3.014,3.014,0,0,1,3.014-3.014h61.427a3.014,3.014,0,0,1,3.014,3.014h0A3.015,3.015,0,0,1,570.808,663.117Z" transform="translate(-331.408 -433.153)" fill="#e7f2ea"/>
        <path id="Path_5661" data-name="Path 5661" d="M777.449,663.117H636.737a3.015,3.015,0,0,1-3.014-3.015h0a3.014,3.014,0,0,1,3.014-3.014H777.449a3.015,3.015,0,0,1,3.015,3.014h0A3.015,3.015,0,0,1,777.449,663.117Z" transform="translate(-379.481 -433.153)" fill="#d3e5d9" opacity="0.5"/>
        <path id="Path_5662" data-name="Path 5662" d="M944.788,663.117H887.951a3.015,3.015,0,0,1-3.015-3.015h0a3.015,3.015,0,0,1,3.015-3.014h56.837A3.014,3.014,0,0,1,947.8,660.1h0A3.015,3.015,0,0,1,944.788,663.117Z" transform="translate(-474.305 -433.153)" fill="#bfddca" opacity="0.5"/>
        <path id="Path_5663" data-name="Path 5663" d="M422.705,691.619h0a3.014,3.014,0,0,1-3.014-3.014h0a3.014,3.014,0,0,1,3.014-3.014h0a3.014,3.014,0,0,1,3.015,3.014h0A3.015,3.015,0,0,1,422.705,691.619Z" transform="translate(-298.691 -443.911)" fill="#bfddca" opacity="0.5"/>
        <rect id="Rectangle_520" data-name="Rectangle 520" width="20.814" height="6.029" rx="3.015" transform="translate(154.143 241.679)" fill="#ebf2ed" opacity="0.5"/>
        <path id="Path_5664" data-name="Path 5664" d="M422.705,719.746h0a3.015,3.015,0,0,1-3.014-3.015h0a3.014,3.014,0,0,1,3.014-3.014h0a3.015,3.015,0,0,1,3.015,3.014h0A3.015,3.015,0,0,1,422.705,719.746Z" transform="translate(-298.691 -454.528)" fill="#bfddca" opacity="0.5"/>
        <path id="Path_5665" data-name="Path 5665" d="M506.161,719.746H475.945a3.015,3.015,0,0,1-3.014-3.015h0a3.014,3.014,0,0,1,3.014-3.014h30.216a3.014,3.014,0,0,1,3.014,3.014h0A3.014,3.014,0,0,1,506.161,719.746Z" transform="translate(-318.788 -454.528)" fill="#d3e5d9" opacity="0.5"/>
        <path id="Path_5666" data-name="Path 5666" d="M622.286,719.746H548.551a3.015,3.015,0,0,1-3.015-3.015h0a3.015,3.015,0,0,1,3.015-3.014h73.735a3.015,3.015,0,0,1,3.015,3.014h0A3.015,3.015,0,0,1,622.286,719.746Z" transform="translate(-346.193 -454.528)" fill="#e7f2ea"/>
        <path id="Path_5667" data-name="Path 5667" d="M422.705,748.248h0a3.014,3.014,0,0,1-3.014-3.014h0a3.015,3.015,0,0,1,3.014-3.015h0a3.015,3.015,0,0,1,3.015,3.015h0A3.015,3.015,0,0,1,422.705,748.248Z" transform="translate(-298.691 -465.287)" fill="#bfddca" opacity="0.5"/>
        <path id="Path_5668" data-name="Path 5668" d="M741.6,748.248H475.945a3.014,3.014,0,0,1-3.014-3.014h0a3.015,3.015,0,0,1,3.014-3.015H741.6a3.015,3.015,0,0,1,3.014,3.015h0A3.014,3.014,0,0,1,741.6,748.248Z" transform="translate(-318.788 -465.287)" fill="#bfddca" opacity="0.5"/>
        <path id="Path_5669" data-name="Path 5669" d="M960.666,748.248H930.014A3.014,3.014,0,0,1,927,745.234h0a3.015,3.015,0,0,1,3.014-3.015h30.652a3.015,3.015,0,0,1,3.014,3.015h0A3.014,3.014,0,0,1,960.666,748.248Z" transform="translate(-490.183 -465.287)" fill="#ebf2ed" opacity="0.5"/>
        <path id="Path_5670" data-name="Path 5670" d="M960.666,747.442H930.014A3.015,3.015,0,0,1,927,744.428h0a3.015,3.015,0,0,1,3.014-3.015h30.652a3.015,3.015,0,0,1,3.014,3.015h0A3.015,3.015,0,0,1,960.666,747.442Z" transform="translate(-490.183 -464.983)" fill="#bfddca" opacity="0.5"/>
        <path id="Path_5671" data-name="Path 5671" d="M422.705,776.75h0a3.014,3.014,0,0,1-3.014-3.014h0a3.015,3.015,0,0,1,3.014-3.015h0a3.015,3.015,0,0,1,3.015,3.015h0A3.015,3.015,0,0,1,422.705,776.75Z" transform="translate(-298.691 -476.045)" fill="#bfddca"/>
        <path id="Path_5672" data-name="Path 5672" d="M877.764,776.75H509.38a3.014,3.014,0,0,1-3.014-3.014h0a3.015,3.015,0,0,1,3.014-3.015H877.764a3.015,3.015,0,0,1,3.014,3.015h0A3.014,3.014,0,0,1,877.764,776.75Z" transform="translate(-331.408 -476.045)" fill="#e7f2ea" opacity="0.5"/>
        <path id="Path_5673" data-name="Path 5673" d="M422.705,805.253h0a3.014,3.014,0,0,1-3.014-3.014h0a3.015,3.015,0,0,1,3.014-3.014h0a3.015,3.015,0,0,1,3.015,3.014h0A3.015,3.015,0,0,1,422.705,805.253Z" transform="translate(-298.691 -486.804)" fill="#bfddca"/>
        <path id="Path_5674" data-name="Path 5674" d="M729.376,805.253h-220a3.014,3.014,0,0,1-3.014-3.014h0a3.015,3.015,0,0,1,3.014-3.014h220a3.015,3.015,0,0,1,3.015,3.014h0A3.015,3.015,0,0,1,729.376,805.253Z" transform="translate(-331.408 -486.804)" fill="#d3e5d9"/>
        <path id="Path_5675" data-name="Path 5675" d="M944.788,805.253H887.951a3.015,3.015,0,0,1-3.015-3.014h0a3.015,3.015,0,0,1,3.015-3.014h56.837a3.014,3.014,0,0,1,3.014,3.014h0A3.014,3.014,0,0,1,944.788,805.253Z" transform="translate(-474.305 -486.804)" fill="#e2ede6" opacity="0.5"/>
        <path id="Path_5676" data-name="Path 5676" d="M1066.665,805.253h-56.837a3.014,3.014,0,0,1-3.014-3.014h0a3.014,3.014,0,0,1,3.014-3.014h56.837a3.014,3.014,0,0,1,3.014,3.014h0A3.014,3.014,0,0,1,1066.665,805.253Z" transform="translate(-520.309 -486.804)" fill="#d3e5d9" opacity="0.5"/>
        <path id="Path_5677" data-name="Path 5677" d="M422.705,833.755h0a3.015,3.015,0,0,1-3.014-3.015h0a3.014,3.014,0,0,1,3.014-3.014h0a3.014,3.014,0,0,1,3.015,3.014h0A3.015,3.015,0,0,1,422.705,833.755Z" transform="translate(-298.691 -497.563)" fill="#bfddca"/>
        <path id="Path_5678" data-name="Path 5678" d="M490.731,833.755H475.945a3.015,3.015,0,0,1-3.014-3.015h0a3.014,3.014,0,0,1,3.014-3.014h14.785a3.014,3.014,0,0,1,3.015,3.014h0A3.015,3.015,0,0,1,490.731,833.755Z" transform="translate(-318.788 -497.563)" fill="#ebf2ed"/>
        <path id="Path_5782" data-name="Path 5782" d="M549.283,406.972h-54.37a3.015,3.015,0,0,1-3.014-3.015h0a3.014,3.014,0,0,1,3.014-3.014h54.37a3.015,3.015,0,0,1,3.014,3.014h0A3.015,3.015,0,0,1,549.283,406.972Z" transform="translate(-202.947 -318.467)" fill="#d3e5d9" opacity="0.5"/>
        <rect id="Rectangle_528" data-name="Rectangle 528" width="36.245" height="6.029" rx="3.015" transform="translate(238.021 64.366)" fill="#9accae" opacity="0.5"/>
      </g>
      <g id="Group_3288" data-name="Group 3288" transform="translate(269.21 304.478)">
        <path id="Path_5712" data-name="Path 5712" d="M677.592,913.531c-.547-6.53-6.774-11.414-13.2-12.692s-13.042.205-19.453,1.561a514.359,514.359,0,0,1-230.576-4.306c-7.315-1.835-14.724-3.847-22.261-3.558s-15.388,3.281-19.6,9.539c-6.519,9.693-1.6,23.857,7.895,30.667s21.961,7.8,33.614,7,23.29-3.172,34.927-2.141c11.24.995,23.415,6.481,26.879,17.221,2.081,6.453-4.866,44.3,12.911,35.448,5.775-2.874,5.738-12.9,10.064-17.823a25.634,25.634,0,0,1,43.609,7.8c2.754,7.467,3.152,17.539,10.591,20.369,7.482,2.845,14.6-4.6,19.18-11.163l12.108-17.371c3.677-5.275,7.473-10.864,8.088-17.264s-3.242-13.716-9.62-14.534a278.438,278.438,0,0,1,66-11.193c6.325-.3,12.848-.424,18.643-2.977S678.122,919.841,677.592,913.531Z" transform="translate(-358.863 -648.776)" fill="#e8efea" opacity="0.5"/>
        <g id="Group_3287" data-name="Group 3287" transform="translate(0 0)">
          <path id="Path_5713" data-name="Path 5713" d="M484.14,836.253l179.648-7.84-11.108,40.6-104.6,43.864-66.613-29.692Z" transform="translate(-401.113 -623.827)" fill="#00673a"/>
          <path id="Path_5714" data-name="Path 5714" d="M516.548,792.226l1.558,31.93H655.377l3.46-66.847Z" transform="translate(-414.355 -596.988)" fill="#83cca1"/>
          <path id="Path_5715" data-name="Path 5715" d="M534.132,614.161s-58.619,11.883-69.4,20.733-21.461,117.449-17.816,122.46,223.023,10.13,228.08.74-23.116-121.861-30.7-127.5S552.713,612.9,534.132,614.161Z" transform="translate(-387.796 -542.92)" fill="#83cca1"/>
          <path id="Path_5716" data-name="Path 5716" d="M739.184,749.73c-.018,0-.037,0-.056,0a.646.646,0,0,1-.588-.7c1.79-20.688.016-78.952,0-79.538a.645.645,0,1,1,1.29-.04c.019.586,1.794,58.926,0,79.689A.646.646,0,0,1,739.184,749.73Z" transform="translate(-498.148 -563.588)" fill="#004e28"/>
          <path id="Path_5717" data-name="Path 5717" d="M505.149,748.854a.6.6,0,0,1-.075,0,.646.646,0,0,1-.568-.715c2.8-24.492-2.248-74.8-2.3-75.306a.645.645,0,0,1,1.284-.13c.052.506,5.113,50.953,2.3,75.583A.646.646,0,0,1,505.149,748.854Z" transform="translate(-408.941 -564.832)" fill="#004e28"/>
          <path id="Path_5718" data-name="Path 5718" d="M537.932,822.173l-2.768-11.187a1.492,1.492,0,0,1,1.007-1.784l3.789-1.176a1.494,1.494,0,0,0,1.026-1.154l.643-3.474a1.493,1.493,0,0,1,1.468-1.221h3.1a1.492,1.492,0,0,0,1.266-.7l1.89-3.024a1.493,1.493,0,0,1,2.027-.493l3.588,2.127a1.493,1.493,0,0,0,1.49.019l2.107-1.178a1.492,1.492,0,0,1,1.973.479l7.548,11.406a1.493,1.493,0,0,1-.467,2.1l-1.672,1.022a1.493,1.493,0,0,1-1.9-.285h0a1.493,1.493,0,0,0-2.594,1.22l.077.495a1.492,1.492,0,0,1-.814,1.569l-14.8,7.3a1.469,1.469,0,0,1-.3.11c-.929.231-5.475,1.184-7.476-1.693A1.441,1.441,0,0,1,537.932,822.173Z" transform="translate(-421.365 -612.252)" fill="#b2d7c1"/>
          <path id="Path_5719" data-name="Path 5719" d="M688.724,822.173l2.768-11.187a1.492,1.492,0,0,0-1.007-1.784l-3.789-1.176a1.493,1.493,0,0,1-1.025-1.154l-.644-3.474a1.492,1.492,0,0,0-1.468-1.221h-3.1a1.492,1.492,0,0,1-1.266-.7l-1.89-3.024a1.493,1.493,0,0,0-2.027-.493l-3.588,2.127a1.493,1.493,0,0,1-1.49.019l-2.107-1.178a1.492,1.492,0,0,0-1.973.479l-7.548,11.406a1.493,1.493,0,0,0,.467,2.1l1.671,1.022a1.493,1.493,0,0,0,1.9-.285h0a1.493,1.493,0,0,1,2.594,1.22l-.077.495a1.492,1.492,0,0,0,.814,1.569l14.8,7.3a1.481,1.481,0,0,0,.3.11c.929.231,5.475,1.184,7.476-1.693A1.428,1.428,0,0,0,688.724,822.173Z" transform="translate(-467.871 -612.252)" fill="#b2d7c1"/>
          <path id="Path_5720" data-name="Path 5720" d="M513.45,808.955a.617.617,0,0,1-.095-.007l-35.095-5.168a.645.645,0,1,1,.188-1.277l35.094,5.169a.645.645,0,0,1-.093,1.284Z" transform="translate(-399.695 -614.044)" fill="#004e28"/>
          <path id="Path_5721" data-name="Path 5721" d="M716.248,811.991a.645.645,0,0,1-.113-1.281l28.531-5.089a.645.645,0,1,1,.226,1.271l-28.531,5.089A.645.645,0,0,1,716.248,811.991Z" transform="translate(-489.491 -615.22)" fill="#004e28"/>
          <g id="Group_3282" data-name="Group 3282" transform="translate(124.851)">
            <g id="Group_3281" data-name="Group 3281">
              <path id="Path_5722" data-name="Path 5722" d="M572.228,562.031s-4.925,42.344,25.231,42.344c27.43,0,26.473-36.431,26.473-36.431s2.743-22.545-18.522-25.1S570.945,554.42,572.228,562.031Z" transform="translate(-560.111 -515.921)" fill="#dfeae3"/>
              <path id="Path_5723" data-name="Path 5723" d="M609.468,532s-6.7,13.125.091,19.792a17.3,17.3,0,0,1,4.86,16.3l-.075.318s11.386-9.019,13.5-27.306-6.188-29.8-13.214-28.5c0,0-2.8-14.049-20.643-12.736s-32.575-.135-39.038,14.013,4.8,26.537,4.8,26.537.879,14.973,6.97,28l-2.378-17.485S583.95,524.589,609.468,532Z" transform="translate(-552.945 -499.78)" fill="#082d1c"/>
            </g>
            <path id="Path_5724" data-name="Path 5724" d="M653.654,584.917l-2.081,14.335s10.136-5.379,9.974-12.679c-.054-2.433-.9-3.777-2-4.488A3.91,3.91,0,0,0,653.654,584.917Z" transform="translate(-590.174 -530.625)" fill="#dfeae3"/>
            <path id="Path_5725" data-name="Path 5725" d="M567.76,580.252l1.756,18.457s-9.74-5.645-9.578-12.943S567.76,580.252,567.76,580.252Z" transform="translate(-555.583 -530.083)" fill="#dfeae3"/>
          </g>
          <g id="Group_3283" data-name="Group 3283" transform="translate(107.175 149.099)">
            <rect id="Rectangle_522" data-name="Rectangle 522" width="117.715" height="83.185" rx="12.985" fill="#dfeae3"/>
            <path id="Path_5726" data-name="Path 5726" d="M640.308,876.821h-113.8a1.957,1.957,0,0,1-1.957-1.958h0a1.957,1.957,0,0,1,1.957-1.957h113.8a1.958,1.958,0,0,1,1.957,1.957h0A1.958,1.958,0,0,1,640.308,876.821Z" transform="translate(-524.551 -789.721)" fill="#746980"/>
            <path id="Path_5727" data-name="Path 5727" d="M682.282,875.307a.835.835,0,1,1-.834-.834A.834.834,0,0,1,682.282,875.307Z" transform="translate(-583.459 -790.312)" fill="#d3e5d9"/>
            <rect id="Rectangle_523" data-name="Rectangle 523" width="6.734" height="1.669" transform="translate(88.406 84.161)" fill="#d3e5d9"/>
          </g>
          <g id="Group_3284" data-name="Group 3284" transform="translate(0 180.895)">
            <path id="Path_5728" data-name="Path 5728" d="M397.626,794.684l155.93,94.671c-12.553,10.192-19.54,23.509-22.35,39.171l-162.425-81.8a29.774,29.774,0,0,1-10.772-43.989h0A29.775,29.775,0,0,1,397.626,794.684Z" transform="translate(-352.392 -790.358)" fill="#21a871"/>
            <path id="Path_5729" data-name="Path 5729" d="M597.093,972.466l-9.9,8.361,19.586,9.863c5.859-5.044,17.288-14.776,18.989-15.425C628.071,974.385,597.093,972.466,597.093,972.466Z" transform="translate(-441.021 -859.097)" fill="#00673a"/>
            <path id="Path_5730" data-name="Path 5730" d="M662.43,949.381l25.97,14.633a4.006,4.006,0,0,1,1.507,5.483c-6.851,11.947-29.7,50.56-41.776,55.809,0,0-9.748-3.131-6.015-15.877s-1.29-24.537-1.29-24.537S641.674,955.179,662.43,949.381Z" transform="translate(-461.266 -850.383)" fill="#00673a"/>
            <path id="Path_5731" data-name="Path 5731" d="M652.561,1034.7c12.074-5.249,34.925-43.862,41.775-55.809a4,4,0,0,0-.458-4.625C689.239,977.013,669.143,990.969,652.561,1034.7Z" transform="translate(-465.695 -859.777)" fill="#00844d"/>
          </g>
          <g id="Group_3285" data-name="Group 3285" transform="translate(88.536 193.021)">
            <path id="Path_5732" data-name="Path 5732" d="M707.113,812.725,542.364,891.049c11.452,11.416,17.048,25.374,18.25,41.24l169.9-64.856A29.775,29.775,0,0,0,745.7,824.766h0A29.774,29.774,0,0,0,707.113,812.725Z" transform="translate(-512.636 -809.836)" fill="#21a871"/>
            <path id="Path_5733" data-name="Path 5733" d="M524.339,940.291l-27.324,11.917a4.006,4.006,0,0,0-2.057,5.3c5.6,12.582,24.406,53.318,35.884,59.768,0,0,10.017-2.124,7.6-15.184s3.779-24.279,3.779-24.279S544.4,948.169,524.339,940.291Z" transform="translate(-494.611 -859.078)" fill="#00673a"/>
            <path id="Path_5734" data-name="Path 5734" d="M530.842,1024.956c-11.478-6.451-30.283-47.187-35.884-59.768a4,4,0,0,1,.926-4.554C500.221,963.837,518.794,979.765,530.842,1024.956Z" transform="translate(-494.611 -866.757)" fill="#00844d"/>
          </g>
          <g id="Group_3286" data-name="Group 3286" transform="translate(58.391 186.486)">
            <path id="Path_5735" data-name="Path 5735" d="M447.191,799.339c-1.165,15.144-1.393,26.413-.276,27.949,1.025,1.409,19.1,2.826,44.674,3.927Z" transform="translate(-446.187 -799.339)" fill="#83cca1"/>
            <path id="Path_5736" data-name="Path 5736" d="M712.079,836.993c34.706-.4,61.549-1.914,63.28-5.128,1.239-2.3.484-10.782-1.473-22.36Z" transform="translate(-546.552 -803.176)" fill="#83cca1"/>
          </g>
          <path id="Path_5737" data-name="Path 5737" d="M552.109,927.208a.646.646,0,0,1-.277-1.229l29.55-14.049a.646.646,0,0,1,.555,1.166l-29.551,14.049A.638.638,0,0,1,552.109,927.208Z" transform="translate(-427.535 -655.328)" fill="#004e28"/>
        </g>
      </g>
      <g id="Group_3290" data-name="Group 3290" transform="translate(203.181 181.417)">
        <path id="Rectangle_524" data-name="Rectangle 524" d="M12.082,0h33.04A12.081,12.081,0,0,1,57.2,12.081V23.919A12.081,12.081,0,0,1,45.122,36H12.083A12.083,12.083,0,0,1,0,23.917V12.082A12.082,12.082,0,0,1,12.082,0Z" fill="#6ac890"/>
        <g id="Group_3289" data-name="Group 3289" transform="translate(9.701 7.912)">
          <path id="Path_5738" data-name="Path 5738" d="M342.743,259.1h3.727l10.723-20.175h-3.727Z" transform="translate(-331.406 -238.921)" fill="#f8f8f8"/>
          <path id="Path_5739" data-name="Path 5739" d="M392.078,253.063h-.027l-5.769-8.161h-3.956l5.782,8.184-5.782,7.8h3.956l5.769-7.773h.027l-.014-.023Z" transform="translate(-354.278 -242.377)" fill="#f8f8f8"/>
          <path id="Path_5740" data-name="Path 5740" d="M315.89,253.063h.027l5.768-8.161H325.3l-5.782,8.184,5.782,7.8h-3.615l-5.768-7.773h-.027l.013-.023Z" transform="translate(-315.89 -242.377)" fill="#f8f8f8"/>
        </g>
      </g>
      <g id="Group_3321" data-name="Group 3321" transform="translate(75.541 114.839)">
        <circle id="Ellipse_133" data-name="Ellipse 133" cx="32.5" cy="32.5" r="32.5" transform="matrix(0.473, -0.881, 0.881, 0.473, 405.197, 58.272)" fill="#6ac890"/>
        <circle id="Ellipse_135" data-name="Ellipse 135" cx="30" cy="30" r="30" transform="matrix(0.327, -0.945, 0.945, 0.327, 508.197, 155.692)" fill="#21a871"/>
        <g id="Group_3312" data-name="Group 3312" transform="translate(235.823 0)">
          <g id="Group_3310" data-name="Group 3310" transform="translate(0)">
            <circle id="Ellipse_138" data-name="Ellipse 138" cx="27.5" cy="27.5" r="27.5" transform="matrix(0.52, -0.854, 0.854, 0.52, -1.626, 43.987)" fill="#21a871"/>
            <path id="graphql" d="M13.261,2.865,18.4,5.833a2.229,2.229,0,1,1,2.14,3.7V15.47a2.229,2.229,0,1,1-2.192,3.65L13.24,22.07a2.228,2.228,0,1,1-4.253.072L3.848,19.174a2.229,2.229,0,1,1-2.139-3.7V9.532a2.23,2.23,0,1,1,2.138-3.7L8.988,2.862a2.228,2.228,0,1,1,4.273,0Zm-.536.914,5.153,2.975a2.226,2.226,0,0,0,1.6,2.772v5.946L19.4,15.5,12.665,3.839l.06-.059Zm-3.14.061L2.856,15.5l-.088-.023V9.526a2.226,2.226,0,0,0,1.6-2.775L9.522,3.777l.064.063Zm2.162.528,6.728,11.653a2.237,2.237,0,0,0-.627,1.088H4.4a2.218,2.218,0,0,0-.627-1.085L10.5,4.369a2.251,2.251,0,0,0,1.243,0Zm1.025,16.9,5.119-2.956q-.023-.072-.041-.146H4.4q-.011.043-.023.086l5.144,2.97a2.231,2.231,0,0,1,3.253.045Z" transform="translate(25.374 22)" fill="#fff" fill-rule="evenodd"/>
          </g>
        </g>
      </g>
      <path id="Path_5770" data-name="Path 5770" d="M185.363,227.91l-.611-.05c.1-1.219.227-2.454.377-3.67l.609.075C185.588,225.472,185.462,226.7,185.363,227.91Zm1.108-8.471-.6-.109c.217-1.2.462-2.417.728-3.614l.6.133C186.93,217.038,186.687,218.246,186.471,219.439Zm1.914-8.329-.59-.165c.327-1.17.684-2.359,1.063-3.533l.583.187C189.065,208.766,188.71,209.947,188.385,211.11Zm2.676-8.122-.573-.218c.436-1.145.9-2.3,1.378-3.424l.564.24C191.953,200.706,191.493,201.85,191.061,202.988Zm3.391-7.854-.552-.268c.533-1.1,1.1-2.207,1.67-3.291l.542.288C195.54,192.939,194.981,194.04,194.452,195.133Zm4.058-7.535-.527-.314c.627-1.054,1.281-2.11,1.944-3.138l.515.332C199.783,185.5,199.133,186.551,198.51,187.6Zm4.678-7.168-.5-.356c.714-1,1.453-2,2.2-2.966l.486.374C204.632,178.445,203.9,179.437,203.188,180.431Zm5.254-6.756-.468-.4c.791-.936,1.609-1.87,2.431-2.776l.454.412C210.041,171.816,209.228,172.744,208.441,173.674Zm5.788-6.3-.435-.433c.863-.866,1.754-1.731,2.65-2.568l.418.448C215.972,165.651,215.086,166.51,214.229,167.371Zm73.917-.527a16.094,16.094,0,0,1-3.715-.447l.142-.6a15.458,15.458,0,0,0,3.574.43Zm4.909-.9-.228-.569a9.919,9.919,0,0,0,3.012-1.876l.413.452A10.524,10.524,0,0,1,293.055,165.941Zm-13.246-1.4a15.306,15.306,0,0,1-2.978-2.27l.43-.437a14.7,14.7,0,0,0,2.859,2.178Zm-59.3-2.983-.4-.467c.931-.793,1.89-1.581,2.85-2.341l.38.48C222.388,159.989,221.435,160.772,220.509,161.561Zm78.513-1.779-.575-.213a11.243,11.243,0,0,0,.68-3.5l.613.022A11.828,11.828,0,0,1,299.022,159.782Zm-25.03-1.614c-.064-.148-.124-.3-.181-.446a16.045,16.045,0,0,1-.844-3.156l.605-.1a15.422,15.422,0,0,0,.812,3.035q.081.214.171.425Zm-46.747-1.88-.358-.5c1-.717,2.02-1.423,3.035-2.1l.339.511C229.253,154.874,228.238,155.575,227.246,156.288Zm7.152-4.69-.314-.526c1.051-.627,2.128-1.243,3.2-1.831l.294.538C236.513,150.364,235.442,150.976,234.4,151.6Zm64.044-.255a16.714,16.714,0,0,0-1.469-3.292l.53-.308a17.3,17.3,0,0,1,1.523,3.413Zm-24.925-1.674-.608-.079a19.857,19.857,0,0,1,.835-3.637l.582.192A19.319,19.319,0,0,0,273.517,149.669Zm-31.592-2.128-.266-.552c1.106-.535,2.233-1.054,3.35-1.543l.246.562C244.144,146.5,243.024,147.011,241.925,147.542Zm52.084-3.274a15.932,15.932,0,0,0-2.753-2.135l-.1-.061.314-.527.106.064a16.567,16.567,0,0,1,2.859,2.217Zm-44.227-.1-.216-.574c1.145-.431,2.316-.846,3.479-1.232l.193.582C252.084,143.327,250.921,143.739,249.783,144.168Zm26.557-2.414-.527-.313a24.9,24.9,0,0,1,1.927-2.785c-.969-.018-1.955,0-2.981.043l-.028-.613c1.281-.059,2.5-.067,3.7-.024l-.022.613-.121,0,.136.112A24.309,24.309,0,0,0,276.339,141.755Zm-18.422-.226-.162-.591c1.187-.324,2.391-.627,3.581-.9l.138.6C260.292,140.906,259.1,141.207,257.917,141.529Zm28.845-1.458a26.226,26.226,0,0,0-3.522-.89l.11-.6a26.859,26.859,0,0,1,3.6.91Zm-20.494-.4-.1-.6c.9-.154,1.816-.3,2.722-.423q.465-.064.933-.124l.077.608q-.464.06-.925.123C268.071,139.38,267.162,139.52,266.269,139.674Zm15.573-4.316-.389-.474a24.064,24.064,0,0,1,3.048-2.136l.311.529A23.338,23.338,0,0,0,281.841,135.358Zm61.283-1.95c-1.02,0-2.082-.029-3.158-.083l.032-.613c1.065.055,2.116.082,3.126.082l.532,0,.006.613Zm-8.063-.5c-1.154-.132-2.35-.289-3.657-.482l.09-.606c1.3.192,2.49.348,3.637.48Zm-8.506-1.267c-1.059-.182-2.117-.37-3.175-.558l-.45-.08.107-.6.449.08q1.587.281,3.173.558ZM289.19,131.2l-.217-.573a34.1,34.1,0,0,1,3.538-1.119l.153.593A33.4,33.4,0,0,0,289.19,131.2Zm28.911-1.026c-1.324-.217-2.511-.4-3.629-.556l.085-.608c1.123.158,2.315.341,3.643.558Zm-20.659-.984-.078-.608c1.184-.153,2.425-.261,3.687-.325l.031.612C299.835,128.93,298.61,129.038,297.441,129.189Zm12.174-.128c-1.25-.107-2.48-.182-3.656-.223l.021-.613c1.187.041,2.427.116,3.688.224Z" transform="translate(-41.904 -5.053)" fill="#82c19d"/>
      <path id="Path_5771" data-name="Path 5771" d="M902.419,244.413l-.357-.5a34.158,34.158,0,0,0,2.849-2.271l.408.459A35.592,35.592,0,0,1,902.419,244.413Zm6.365-5.834-.464-.4c.787-.913,1.541-1.881,2.244-2.877l.5.354C910.352,236.668,909.584,237.651,908.785,238.579Zm4.868-7.132-.541-.288c.568-1.066,1.1-2.175,1.566-3.3l.565.238C914.764,229.238,914.229,230.365,913.652,231.447Zm3.223-8.009-.59-.167c.331-1.172.611-2.367.832-3.553l.6.112C917.5,221.035,917.212,222.249,916.875,223.438Zm1.442-8.513-.612-.035c.041-.71.062-1.432.062-2.144q0-.752-.031-1.5l.613-.025q.032.764.031,1.528C918.379,213.47,918.358,214.2,918.317,214.926Zm-1.111-8.513a33.89,33.89,0,0,0-.836-3.546l.588-.172a34.348,34.348,0,0,1,.851,3.611Zm-2.542-8.092a34.937,34.937,0,0,0-1.694-3.226l.527-.313a35.426,35.426,0,0,1,1.724,3.283Zm-4.449-7.23c-.748-.947-1.555-1.873-2.4-2.75l.443-.425c.855.893,1.675,1.833,2.435,2.8Zm-5.975-6.045c-.94-.764-1.927-1.494-2.935-2.17l.341-.509c1.023.686,2.026,1.427,2.98,2.2Zm-7.132-4.629c-1.085-.55-2.2-1.055-3.326-1.5l.225-.571c1.14.451,2.277.963,3.379,1.521Zm-7.952-3c-1.18-.3-2.381-.543-3.573-.723l.091-.606c1.212.183,2.435.43,3.633.736ZM877.1,176.46l-.06-.611c1.095-.107,2.214-.161,3.327-.161l.38,0-.008.613-.373,0C879.273,176.3,878.174,176.354,877.1,176.46Z" transform="translate(-303.218 -22.968)" fill="#82c19d"/>
      <path id="Path_5772" data-name="Path 5772" d="M1031.8,496.994q-.829,0-1.661-.016l.011-.613q1.838.033,3.666-.009l.014.613Q1032.813,496.994,1031.8,496.994Zm-6.576-.227c-1.193-.079-2.43-.18-3.675-.3l.058-.61c1.24.12,2.47.22,3.657.3Zm13.522-.068-.054-.611c1.227-.108,2.452-.248,3.638-.418l.087.606C1041.217,496.448,1039.982,496.591,1038.743,496.7Zm-22.081-.786q-1.826-.236-3.649-.509l.09-.606q1.817.271,3.638.507Zm30.6-.524-.135-.6c1.194-.27,2.386-.579,3.542-.919l.173.588C1049.672,494.8,1048.468,495.116,1047.261,495.389Zm-39.1-.755q-1.818-.305-3.629-.628l.107-.6q1.808.319,3.624.626Zm47.328-1.836-.24-.565c1.114-.472,2.225-1,3.3-1.563l.285.544C1057.747,491.786,1056.62,492.319,1055.491,492.8Zm7.592-4.11-.342-.509c1.009-.677,2-1.4,2.95-2.156l.382.48C1065.112,487.266,1064.106,488,1063.083,488.687Zm6.677-5.467-.433-.435c.868-.865,1.7-1.769,2.469-2.687l.469.394C1071.483,481.425,1070.641,482.343,1069.76,483.22Zm5.437-6.7-.517-.331a34.924,34.924,0,0,0,1.8-3.164l.548.275A35.646,35.646,0,0,1,1075.2,476.518Zm3.707-7.8-.583-.187a28.576,28.576,0,0,0,.886-3.525l.6.11A28.955,28.955,0,0,1,1078.9,468.722Zm.748-8.533a26.316,26.316,0,0,0-.243-3.575l.6-.136.007.051a26.79,26.79,0,0,1,.249,3.639Zm-1.333-8.345a29.487,29.487,0,0,0-1.33-3.382l.556-.259a30.144,30.144,0,0,1,1.357,3.453Zm-3.7-7.617c-.652-.989-1.377-1.98-2.155-2.945l.478-.385c.79.98,1.527,1.987,2.189,2.992Zm-5.42-6.558c-.842-.837-1.745-1.674-2.686-2.486l.4-.464c.951.822,1.865,1.668,2.717,2.515Zm-6.509-5.521c-.959-.7-1.973-1.4-3.013-2.085l.336-.513c1.049.687,2.072,1.394,3.04,2.1Zm-7.185-4.629c-1.043-.593-2.128-1.18-3.223-1.743l.281-.545c1.1.567,2.2,1.158,3.246,1.756Zm-7.613-3.911q-1.657-.79-3.329-1.559l.258-.557q1.672.773,3.335,1.563ZM1040.1,420q-1.674-.769-3.341-1.546l.26-.555q1.663.78,3.336,1.544Zm-7.766-3.68c-1.172-.584-2.244-1.137-3.276-1.691l.289-.54c1.028.55,2.094,1.1,3.26,1.683Zm-7.552-4.124c-1.078-.653-2.124-1.324-3.109-1.993l.344-.507c.977.663,2.015,1.328,3.083,1.976Zm-7.074-4.922c-.971-.784-1.911-1.6-2.795-2.424l.418-.448c.873.815,1.8,1.621,2.762,2.4Zm-6.164-6.044c-.771-.952-1.507-1.96-2.186-2.995l.512-.337c.669,1.018,1.393,2.01,2.151,2.946Zm-4.625-7.294a36.8,36.8,0,0,1-1.447-3.415l.576-.21a36.269,36.269,0,0,0,1.422,3.358Zm-2.8-8.17a30.382,30.382,0,0,1-.528-3.675l.611-.049a29.726,29.726,0,0,0,.518,3.6Zm.142-8.562-.609-.067a22.824,22.824,0,0,1,.706-3.657l.59.166A22.3,22.3,0,0,0,1004.257,377.209Zm2.536-8.008-.532-.3a20.045,20.045,0,0,1,2.137-3.057l.468.4A19.446,19.446,0,0,0,1006.793,369.2Z" transform="translate(-350.985 -94.745)" fill="#82c19d"/>
      <path id="Path_5773" data-name="Path 5773" d="M197.093,645.477c-1.2-.212-2.419-.473-3.618-.774l.149-.595c1.185.3,2.388.555,3.575.764Zm-8.341-2.191c-1.151-.4-2.311-.854-3.447-1.34l.241-.564c1.124.481,2.271.926,3.409,1.325Zm-7.891-3.476c-1.08-.579-2.157-1.2-3.2-1.851l.323-.52c1.034.642,2.1,1.258,3.168,1.83Zm-7.274-4.631c-.983-.735-1.955-1.51-2.89-2.306l.4-.467c.925.788,1.887,1.556,2.86,2.282Zm-6.5-5.661c-.867-.878-1.712-1.79-2.513-2.713l.463-.4c.792.912,1.628,1.815,2.486,2.684Zm-5.577-6.575c-.721-1-1.416-2.029-2.066-3.068l.52-.324c.642,1.027,1.33,2.048,2.043,3.033Zm-4.484-7.366c-.554-1.1-1.073-2.232-1.544-3.362l.566-.236c.465,1.117.979,2.234,1.526,3.322Z" transform="translate(-30.855 -187.653)" fill="#82c19d"/>
      <path id="Path_5774" data-name="Path 5774" d="M679.922,239.974l-.605-.1c.195-1.209.37-2.43.521-3.631l.608.077C680.3,237.529,680.119,238.758,679.922,239.974Zm1.015-8.547-.611-.045c.091-1.233.159-2.464.2-3.661l.613.021C681.1,228.946,681.031,230.186,680.938,231.426Zm-.388-8.593c-.031-1.234-.091-2.465-.179-3.659l.611-.045c.088,1.2.149,2.445.181,3.689Zm-.7-8.514c-.173-1.215-.381-2.43-.617-3.609l.6-.12c.239,1.19.448,2.416.623,3.642Zm-1.762-8.352c-.322-1.131-.68-2.26-1.065-3.356l-.046-.132.579-.2.045.128c.39,1.111.752,2.252,1.076,3.394Zm-2.95-8c-.509-1.1-1.064-2.2-1.652-3.263l.538-.3c.593,1.078,1.155,2.189,1.67,3.3Zm-4.2-7.415c-.688-1.006-1.418-2-2.172-2.94l.479-.382c.764.956,1.5,1.958,2.2,2.976Zm-5.4-6.587c-.859-.872-1.756-1.713-2.666-2.5l.4-.464c.923.795,1.832,1.647,2.7,2.531Zm-45.377-.663a11.035,11.035,0,0,1-1.639-.121l.091-.606a11.109,11.109,0,0,0,3.563-.067l.107.6A12.141,12.141,0,0,1,620.158,183.3Zm6.791-1.952-.315-.527a13.755,13.755,0,0,0,2.816-2.224l.44.428A14.419,14.419,0,0,1,626.948,181.349Zm-10.539-.372-.435-.432a28.024,28.024,0,0,1,2.791-2.455l.374.487A27.288,27.288,0,0,0,616.41,180.977Zm42.6-2.469c-1.01-.684-2.057-1.324-3.112-1.9l.3-.537c1.071.588,2.135,1.239,3.161,1.934Zm-35.785-2.547-.287-.542a31.689,31.689,0,0,1,3.379-1.539l.222.572A31.061,31.061,0,0,0,623.219,175.96Zm9.405-1.111-.569-.228c.032-.081.063-.162.093-.244a13.5,13.5,0,0,0,.487-1.63q-.735.132-1.457.3l-.134-.6c.568-.128,1.145-.243,1.725-.343.059-.318.105-.639.142-.963l.609.068c-.03.265-.066.529-.11.79q.644-.1,1.291-.174l.07.609c-.495.057-.99.126-1.483.2a14.1,14.1,0,0,1-.565,1.953C632.693,174.677,632.659,174.763,632.625,174.85Zm18.863-.309a33.634,33.634,0,0,0-3.458-1.137l.159-.593a34.2,34.2,0,0,1,3.477,1.142l-.064.3Zm-8.226-2.071a35.4,35.4,0,0,0-3.636-.265l.013-.613a36.255,36.255,0,0,1,3.7.269Zm-10.579-6.116a18.011,18.011,0,0,0-1.071-3.449l.564-.238a18.466,18.466,0,0,1,1.107,3.567Zm-3.491-7.612a18.906,18.906,0,0,0-2.454-2.653l.407-.458a19.451,19.451,0,0,1,2.534,2.739Zm-43.139-4.555-.172-.588q1.763-.517,3.535-1.025l.168.59C588.4,153.5,587.228,153.843,586.053,154.187Zm36.731-.865a25.041,25.041,0,0,0-3.3-1.508l.214-.574a25.677,25.677,0,0,1,3.385,1.544Zm-28.473-1.432-.148-.6c1.274-.318,2.451-.587,3.6-.824l.124.6C596.745,151.305,595.577,151.573,594.311,151.889Zm20.5-1.374a33.81,33.81,0,0,0-3.611-.489l.05-.611a34.352,34.352,0,0,1,3.677.5Zm-12.113-.249-.076-.609c1.259-.156,2.5-.264,3.687-.321l.029.613C605.165,150,603.941,150.112,602.7,150.266Z" transform="translate(-193.316 -13.022)" fill="#82c19d"/>
      <g id="Group_3327" data-name="Group 3327" transform="translate(646.181 459.417)">
        <rect id="Rectangle_524-2" data-name="Rectangle 524" width="84" height="41" rx="8" transform="translate(-0.443 0.423)" fill="#6ac890"/>
        <g id="base-web-24c5dca744b5f8c22a9d8219799eea44" transform="translate(14.557 9.603)">
          <path id="Path_5783" data-name="Path 5783" d="M244,16h4.532a3.78,3.78,0,0,1,1.416.262,3.412,3.412,0,0,1,1.151.681,2.814,2.814,0,0,1,.761,1.013,2.772,2.772,0,0,1,.283,1.24,2.634,2.634,0,0,1-.425,1.449,3.137,3.137,0,0,1-1.1,1.047,3.416,3.416,0,0,1,1.7,1.187,2.938,2.938,0,0,1,.655,1.885,3.234,3.234,0,0,1-.283,1.344,3.346,3.346,0,0,1-.8,1.1,3.73,3.73,0,0,1-1.186.751,4.016,4.016,0,0,1-1.469.262H244Zm1.859,1.554v3.579h2.531a1.921,1.921,0,0,0,.743-.14,1.77,1.77,0,0,0,.6-.384,1.84,1.84,0,0,0,.389-.559,1.76,1.76,0,0,0,.142-.7,1.687,1.687,0,0,0-.531-1.274,1.8,1.8,0,0,0-1.345-.524Zm3.133,9.113a2.075,2.075,0,0,0,1.522-.576,1.988,1.988,0,0,0,.584-1.449,1.827,1.827,0,0,0-.159-.768,2.117,2.117,0,0,0-1.1-1.065,2.25,2.25,0,0,0-.85-.157h-3.133v4.015Z" transform="translate(-225.464 -14.042)" fill="#fff"/>
          <path id="Path_5784" data-name="Path 5784" d="M370.718,64.737a2.3,2.3,0,0,1,.761-1.833,3.58,3.58,0,0,1,2.2-.768l2.815-.21V61.35a1.5,1.5,0,0,0-.478-1.187,1.979,1.979,0,0,0-1.381-.436,3.8,3.8,0,0,0-1.257.209,3.645,3.645,0,0,0-1.168.646l-.8-1.274a4.651,4.651,0,0,1,1.575-.873,5.92,5.92,0,0,1,1.894-.3,4.292,4.292,0,0,1,1.381.209,2.977,2.977,0,0,1,1.062.611,2.479,2.479,0,0,1,.673.943,2.9,2.9,0,0,1,.248,1.222v4.015q0,.506.531.506h.46V67.2h-.885a2.014,2.014,0,0,1-1.115-.3,1.559,1.559,0,0,1-.62-.821,3.187,3.187,0,0,1-1.186.96,3.709,3.709,0,0,1-1.629.349,3.837,3.837,0,0,1-1.239-.192,3.165,3.165,0,0,1-.974-.541,2.674,2.674,0,0,1-.637-.855A2.469,2.469,0,0,1,370.718,64.737Zm1.717-.017a1.137,1.137,0,0,0,.478.943,2.05,2.05,0,0,0,1.239.349,2.609,2.609,0,0,0,1.646-.576,2.023,2.023,0,0,0,.5-.646,1.65,1.65,0,0,0,.195-.786v-.733l-2.549.209Q372.435,63.585,372.435,64.72Z" transform="translate(-342.555 -53.021)" fill="#fff"/>
          <path id="Path_5785" data-name="Path 5785" d="M491.486,66.96a4.69,4.69,0,0,1-1.5-.227,4.21,4.21,0,0,1-1.186-.611,3.476,3.476,0,0,1-.814-.943,3.7,3.7,0,0,1-.443-1.17h1.717a1.712,1.712,0,0,0,.761,1.152,2.642,2.642,0,0,0,1.452.384,1.847,1.847,0,0,0,1.151-.314.975.975,0,0,0,.425-.821q0-.82-1.239-1.152l-1.664-.4q-2.443-.611-2.443-2.514a2.552,2.552,0,0,1,.23-1.1,2.7,2.7,0,0,1,.655-.838,3.123,3.123,0,0,1,.991-.541,4.061,4.061,0,0,1,1.275-.192,4.254,4.254,0,0,1,1.434.227,3.546,3.546,0,0,1,1.133.628,3.121,3.121,0,0,1,.779.925,3.342,3.342,0,0,1,.389,1.17h-1.717a1.713,1.713,0,0,0-.761-1.152,2.274,2.274,0,0,0-1.275-.384,1.542,1.542,0,0,0-1.027.314.956.956,0,0,0-.354.768q0,.838,1.292,1.152l1.558.4q2.5.628,2.5,2.549a2.422,2.422,0,0,1-.9,1.92,3.1,3.1,0,0,1-1.044.576A4.476,4.476,0,0,1,491.486,66.96Z" transform="translate(-450.501 -52.59)" fill="#fff"/>
          <path id="Path_5786" data-name="Path 5786" d="M590.352,62.532a4.529,4.529,0,0,1,.354-1.781,4.639,4.639,0,0,1,.974-1.466,4.459,4.459,0,0,1,1.469-1.013,4.824,4.824,0,0,1,3.647-.017,4.223,4.223,0,0,1,1.434.978,4.3,4.3,0,0,1,.938,1.466,4.877,4.877,0,0,1,.336,1.833v.576h-7.346a3.048,3.048,0,0,0,.354,1.013,2.9,2.9,0,0,0,1.558,1.327,3.056,3.056,0,0,0,1.08.192,3.111,3.111,0,0,0,2.6-1.309l1.292.943a4.738,4.738,0,0,1-3.895,1.9,5.114,5.114,0,0,1-1.894-.349,4.547,4.547,0,0,1-2.531-2.444A4.592,4.592,0,0,1,590.352,62.532Zm4.6-3.09a2.7,2.7,0,0,0-1.77.628,2.946,2.946,0,0,0-.991,1.641H597.7a2.82,2.82,0,0,0-.991-1.641A2.629,2.629,0,0,0,594.955,59.442Z" transform="translate(-545.504 -52.805)" fill="#fff"/>
          <path id="Path_5787" data-name="Path 5787" d="M244.368,223.56l.987-3.76h.51l-1.241,4.514h-.477l-1.287-3.773-1.281,3.773H241.1L239.86,219.8h.523l.987,3.766,1.274-3.766h.444Zm1.715-.864a1.635,1.635,0,0,1,.477-1.18,1.647,1.647,0,0,1,.529-.361,1.617,1.617,0,0,1,.66-.135,1.559,1.559,0,0,1,.634.129,1.487,1.487,0,0,1,.51.348,1.62,1.62,0,0,1,.34.516,1.654,1.654,0,0,1,.124.645v.181h-2.8a1.285,1.285,0,0,0,.131.445,1.419,1.419,0,0,0,.274.361,1.312,1.312,0,0,0,.379.239,1.3,1.3,0,0,0,1.039-.052,1.373,1.373,0,0,0,.457-.393l.353.245a1.693,1.693,0,0,1-.595.509,1.736,1.736,0,0,1-.791.181,1.768,1.768,0,0,1-.679-.129,1.662,1.662,0,0,1-.542-.355,1.748,1.748,0,0,1-.366-.529A1.69,1.69,0,0,1,246.083,222.7Zm1.666-1.27a1.128,1.128,0,0,0-.418.077,1.221,1.221,0,0,0-.353.213,1.2,1.2,0,0,0-.412.735h2.319a1.187,1.187,0,0,0-.137-.413,1.092,1.092,0,0,0-.255-.322,1.158,1.158,0,0,0-.34-.213A1.061,1.061,0,0,0,247.749,221.425Zm2.317-1.625h.47v1.825a1.606,1.606,0,0,1,1.281-.606,1.734,1.734,0,0,1,.666.129,1.612,1.612,0,0,1,.542.361,1.638,1.638,0,0,1,.359.535,1.561,1.561,0,0,1,.137.651,1.621,1.621,0,0,1-.137.664,1.733,1.733,0,0,1-.359.535,1.662,1.662,0,0,1-.542.355,1.7,1.7,0,0,1-.666.129,1.617,1.617,0,0,1-.725-.161,1.669,1.669,0,0,1-.555-.439v.535h-.47Zm.464,2.9a1.264,1.264,0,0,0,.1.5,1.3,1.3,0,0,0,.268.406,1.445,1.445,0,0,0,.405.271,1.289,1.289,0,0,0,.98,0,1.352,1.352,0,0,0,.4-.271,1.246,1.246,0,0,0,.274-.406,1.264,1.264,0,0,0,.1-.5,1.218,1.218,0,0,0-.1-.49,1.176,1.176,0,0,0-.274-.4,1.207,1.207,0,0,0-.4-.271,1.215,1.215,0,0,0-.98,0,1.283,1.283,0,0,0-.405.271,1.256,1.256,0,0,0-.366.89Z" transform="translate(-221.638 -202.56)" fill="#fff"/>
          <path id="Path_5788" data-name="Path 5788" d="M100.374,46.2c0-.182,0-.273.036-.315a.152.152,0,0,1,.127-.052c.056,0,.121.069.251.2l3.615,3.577a.56.56,0,0,1,.152.185.223.223,0,0,1,0,.139.56.56,0,0,1-.152.185l-3.615,3.577c-.13.129-.2.193-.251.2a.152.152,0,0,1-.127-.052c-.036-.042-.036-.133-.036-.315Z" transform="translate(-92.749 -41.637)" fill="#fff"/>
          <path id="Path_5789" data-name="Path 5789" d="M9,1.393a2,2,0,0,0-2.806,0L.581,6.933a1.941,1.941,0,0,0,0,2.77l5.612,5.54a2,2,0,0,0,2.806,0L14.612,9.7a1.941,1.941,0,0,0,0-2.77ZM8.313,3.4a1,1,0,0,0-1.4,0L2.7,7.555a.97.97,0,0,0,0,1.385L6.91,13.1a1,1,0,0,0,1.4,0L12.523,8.94a.97.97,0,0,0,0-1.385Z" transform="translate(0 0)" fill="#fff" fill-rule="evenodd"/>
        </g>
      </g>
    </g>
    <g id="Mask_Group_3" data-name="Mask Group 3" transform="translate(-679 -466)" clip-path="url(#clip-path)">
      <path id="typescriptlang-icon" d="M0,32V64H64V0H0Zm51.577-2.55a7.971,7.971,0,0,1,4,2.306,10.515,10.515,0,0,1,1.534,2.052c.02.08-2.763,1.95-4.45,3-.06.04-.305-.223-.58-.63a3.623,3.623,0,0,0-3.007-1.808c-1.94-.132-3.2.884-3.18,2.58a2.347,2.347,0,0,0,.274,1.2c.427.884,1.22,1.412,3.708,2.49,4.582,1.97,6.542,3.27,7.76,5.12a9.293,9.293,0,0,1,.742,7.8c-1.016,2.662-3.535,4.47-7.08,5.07a19.636,19.636,0,0,1-4.876-.05,11.762,11.762,0,0,1-6.512-3.393,11.251,11.251,0,0,1-1.666-2.47,4.86,4.86,0,0,1,.59-.376l2.377-1.37,1.84-1.067.386.57A8.586,8.586,0,0,0,45.868,52.8c2.042,1.077,4.846.924,6.227-.315a2.782,2.782,0,0,0,.356-3.545c-.5-.71-1.514-1.31-4.4-2.56-3.3-1.422-4.724-2.306-6.024-3.708a8.445,8.445,0,0,1-1.758-3.2,12.811,12.811,0,0,1-.112-4.084,7.786,7.786,0,0,1,6.563-6.075,16.231,16.231,0,0,1,4.856.142ZM36.552,32.12l.02,2.62h-8.33V58.41H22.35V34.74H14.02V32.17l.07-2.64c.03-.04,5.1-.06,11.246-.05l11.185.03Z" transform="translate(1580 6792.002)" fill="#21a871"/>
    </g>
    <g id="react" transform="translate(1304.756 6143.486)">
      <path id="Union_2" data-name="Union 2" d="M27.655,35a7.544,7.544,0,0,1-3.224-.86,17.086,17.086,0,0,1-3.626-2.454c-.361-.312-.719-.638-1.064-.97-.281.271-.557.526-.821.757a17.5,17.5,0,0,1-3.812,2.6,7.978,7.978,0,0,1-3.419.914,3.706,3.706,0,0,1-1.877-.461,3.583,3.583,0,0,1-1.27-1.287A6.312,6.312,0,0,1,7.8,31.229a15.148,15.148,0,0,1,.143-5.659c.09-.469.194-.941.309-1.4-.355-.1-.713-.213-1.064-.333A15.7,15.7,0,0,1,1.97,21.008,4.911,4.911,0,0,1,0,17.467a3.584,3.584,0,0,1,.481-1.743,6.315,6.315,0,0,1,1.37-1.642,15.145,15.145,0,0,1,4.974-2.7c.455-.158.945-.312,1.456-.458-.108-.43-.205-.868-.291-1.3a15.707,15.707,0,0,1-.2-5.769A6.419,6.419,0,0,1,8.517,1.8,3.538,3.538,0,0,1,9.784.5,3.643,3.643,0,0,1,11.633.038,7.939,7.939,0,0,1,15.112,1a18.492,18.492,0,0,1,3.924,2.739c.222.2.441.4.652.6.318-.307.647-.609.979-.9A17.681,17.681,0,0,1,24.379.9,7.592,7.592,0,0,1,27.668,0a3.549,3.549,0,0,1,1.8.445,3.642,3.642,0,0,1,1.32,1.372,6.755,6.755,0,0,1,.746,2.164,16.506,16.506,0,0,1-.258,6.1c-.06.291-.126.581-.2.864.426.122.852.257,1.266.4a15.707,15.707,0,0,1,5.09,2.722,6.413,6.413,0,0,1,1.409,1.651,3.535,3.535,0,0,1,.5,1.75,3.641,3.641,0,0,1-.529,1.829,6.761,6.761,0,0,1-1.5,1.727,16.5,16.5,0,0,1-5.413,2.824c-.231.077-.477.153-.731.228.09.363.17.717.236,1.051a15.7,15.7,0,0,1,.173,5.936,4.911,4.911,0,0,1-2.078,3.479A3.619,3.619,0,0,1,27.655,35Zm-3.446-9.677a39.425,39.425,0,0,1-3.3,4.187c.331.319.664.622.989.9a15.871,15.871,0,0,0,3.181,2.176,6.065,6.065,0,0,0,2.562.735,1.99,1.99,0,0,0,1.007-.235,3.482,3.482,0,0,0,1.288-2.442,14.2,14.2,0,0,0-.189-5.192c-.059-.3-.131-.62-.213-.952A39.162,39.162,0,0,1,24.209,25.323Zm-14.61.56c-.673,3.546-.25,6.433,1.053,7.184a2.069,2.069,0,0,0,1.039.236,5.264,5.264,0,0,0,1.72-.34,14.208,14.208,0,0,0,4.4-2.757c.252-.221.5-.453.749-.69a40.739,40.739,0,0,1-3.377-4.172,39.542,39.542,0,0,1-5.3-.767C9.779,25.007,9.682,25.446,9.6,25.883Zm10.136,2.424a35.851,35.851,0,0,0,2.309-2.841c-.783.035-1.582.053-2.375.053s-1.554-.015-2.3-.045C18.142,26.5,18.939,27.448,19.734,28.307Zm-7.228-10.8c.516,1.071,1.081,2.137,1.678,3.17s1.247,2.062,1.923,3.049c1.149.075,2.348.112,3.562.112s2.429-.042,3.6-.126c.658-.988,1.293-2.012,1.887-3.045s1.167-2.108,1.69-3.184c-.528-1.064-1.1-2.125-1.7-3.156s-1.232-2.046-1.9-3.026c-1.18-.09-2.388-.136-3.588-.136s-2.4.045-3.582.135c-.67.982-1.312,2-1.907,3.037h0C13.586,15.365,13.023,16.432,12.506,17.507ZM10.34,22.956a35.856,35.856,0,0,0,3.625.583c-.429-.666-.845-1.346-1.235-2.02s-.76-1.35-1.115-2.035C11.116,20.666,10.687,21.834,10.34,22.956Zm16.274-1.449c-.388.673-.795,1.347-1.208,2a35.684,35.684,0,0,0,3.67-.626,35.8,35.8,0,0,0-1.321-3.461C27.391,20.125,27.007,20.827,26.614,21.507ZM7.378,12.966c-3.408,1.188-5.7,3-5.7,4.5a3.484,3.484,0,0,0,1.468,2.339,14.214,14.214,0,0,0,4.588,2.437c.323.11.649.212.971.3a40.849,40.849,0,0,1,1.941-5.039,40.245,40.245,0,0,1-1.918-4.968C8.275,12.668,7.82,12.812,7.378,12.966Zm21.335,4.509A39.487,39.487,0,0,1,30.7,22.459c.227-.067.449-.137.661-.207a15.623,15.623,0,0,0,4.606-2.306,5.827,5.827,0,0,0,1.25-1.271,2.18,2.18,0,0,0,.436-1.208,2.065,2.065,0,0,0-.4-1.134,5.486,5.486,0,0,0-1.162-1.2,14.818,14.818,0,0,0-4.3-2.2c-.367-.126-.76-.251-1.169-.369A39.412,39.412,0,0,1,28.713,17.475Zm-2.105-3.99c.389.671.77,1.36,1.132,2.047A35.907,35.907,0,0,0,29,12.145c-1.131-.258-2.338-.469-3.587-.627C25.824,12.165,26.227,12.827,26.608,13.485ZM10.363,12.127c.342,1.1.763,2.248,1.25,3.4.352-.683.726-1.367,1.111-2.034s.788-1.33,1.206-1.982C12.68,11.671,11.48,11.877,10.363,12.127ZM21.77,4.713c-.306.267-.61.546-.9.83a39.407,39.407,0,0,1,3.325,4.15,40.219,40.219,0,0,1,5.26.831c.064-.26.123-.524.177-.782a15.622,15.622,0,0,0,.3-5.142,5.833,5.833,0,0,0-.476-1.718,2.182,2.182,0,0,0-.829-.981,1.918,1.918,0,0,0-.967-.225C26.156,1.677,23.955,2.812,21.77,4.713ZM10.626,1.951a2.064,2.064,0,0,0-.779.918,5.483,5.483,0,0,0-.455,1.605,14.823,14.823,0,0,0,.247,4.82c.079.4.17.809.27,1.212a41,41,0,0,1,5.249-.816A40.338,40.338,0,0,1,18.51,5.544c-.2-.193-.4-.376-.59-.545a17.336,17.336,0,0,0-3.478-2.451,6.484,6.484,0,0,0-2.8-.834A2.015,2.015,0,0,0,10.626,1.951ZM22,9.54a35.97,35.97,0,0,0-2.315-2.795c-.79.853-1.576,1.793-2.335,2.794.77-.036,1.548-.054,2.314-.054S21.228,9.5,22,9.54Zm-5.847,7.927a3.513,3.513,0,1,1,3.513,3.513A3.513,3.513,0,0,1,16.156,17.467Z" transform="translate(15.244 14.514)" fill="#fff"/>
    </g>
    <g id="apollo-graphql-compact" transform="translate(1367.086 6222.801)">
      <path id="Path_5780" data-name="Path 5780" d="M70.171,29.212c-.058,0-.275.021-.485.037a14.943,14.943,0,0,0-7.462,2.723A14.369,14.369,0,0,0,60.3,33.6a15,15,0,0,0,6.882,25.132,14.147,14.147,0,0,0,3.738.464,13.955,13.955,0,0,0,3.612-.433,14.726,14.726,0,0,0,5.07-2.324A15.264,15.264,0,0,0,83.621,52.2,15.031,15.031,0,0,0,85.9,45.169a20.326,20.326,0,0,0-.042-2.429,12.688,12.688,0,0,0-.58-2.838.9.9,0,0,0-.4-.32,1.032,1.032,0,0,0-.249-.029.728.728,0,0,0-.724.713,3.088,3.088,0,0,0,.1.551,13.771,13.771,0,0,1,.118,6.263,13.606,13.606,0,0,1-6.594,8.91,13.561,13.561,0,0,1-8.826,1.54A13.315,13.315,0,0,1,62.528,54.8a14.6,14.6,0,0,1-2.644-2.788,13.4,13.4,0,0,1-2.266-5.4,14.462,14.462,0,0,1-.168-3.5,13.175,13.175,0,0,1,1.275-4.729,11.508,11.508,0,0,1,.931-1.645,13.784,13.784,0,0,1,3.061-3.273,13.388,13.388,0,0,1,4.7-2.313,12.913,12.913,0,0,1,2.531-.42,13.4,13.4,0,0,1,9.127,2.7c.194.147.4.307.454.357l.1.087-.039.11a1.843,1.843,0,0,0,.372,1.765,1.984,1.984,0,0,0,.944.567,2.233,2.233,0,0,0,.855,0,1.891,1.891,0,0,0,1.3-1.2,1.824,1.824,0,0,0-.317-1.734,1.851,1.851,0,0,0-1.9-.614l-.152.039-.215-.178a14.933,14.933,0,0,0-3.042-1.946,14.7,14.7,0,0,0-5.681-1.469c-.4-.024-1.332-.029-1.587-.008Z" fill="#fff"/>
      <path id="Path_5781" data-name="Path 5781" d="M364.132,310.3c-.278.719-.881,2.292-1.345,3.5s-1.416,3.677-2.117,5.495-1.277,3.313-1.283,3.323.729.021,1.634.021h1.65l.1-.27c.055-.147.249-.666.43-1.154l.33-.884h2.476a24.194,24.194,0,0,0,2.468-.034c-.026-.071-.43-1.225-.645-1.841l-.231-.656-1.639-.013-1.637-.013,1.065-2.935c.64-1.763,1.073-2.917,1.081-2.89s.435,1.233.947,2.686,1.356,3.845,1.875,5.316l.942,2.675,1.642.008c.9,0,1.642,0,1.642-.005s-.212-.564-.475-1.238-.824-2.132-1.248-3.237-.9-2.342-1.062-2.754-.433-1.125-.611-1.587-.643-1.671-1.036-2.688-.737-1.912-.766-1.988l-.05-.136h-3.633Z" transform="translate(-295.514 -272.462)" fill="#fff"/>
    </g>
  </g>
</svg>
