<svg xmlns="http://www.w3.org/2000/svg" width="181.873" height="30" viewBox="0 0 181.873 30">
  <g id="Group_4897" data-name="Group 4897" transform="translate(182 -388.849)">
    <path id="Path_2690" data-name="Path 2690" d="M-182,397l3.453.044c2.9.035,5.819-.085,8.707.142a8.662,8.662,0,0,1,7.994,6.936c1,5.193-1.721,9.872-7.372,10.807a36.1,36.1,0,0,1-5.7.2c-.654,0-.81.207-.8.832.031,2.838.014,5.676.014,8.514v.89H-182Zm6.387,12.782c.784,0,1.492.029,2.2-.007a17.414,17.414,0,0,0,2.968-.255,3.24,3.24,0,0,0,2.545-3.249,3.29,3.29,0,0,0-2.156-3.4c-1.8-.673-3.674-.285-5.553-.381Z" transform="translate(0 -7.066)" fill="#292929"/>
    <path id="Path_2691" data-name="Path 2691" d="M1102.01,466.466a7.115,7.115,0,0,0-3.354-.032,4.2,4.2,0,0,0-3.164,4.052c-.115,2.9-.078,5.808-.106,8.712,0,.331,0,.663,0,1.046h-5.969v-19.7h5.777v2.376a5.443,5.443,0,0,1,3.915-2.462,18.244,18.244,0,0,1,2.9.021Z" transform="translate(-1102.137 -62.02)" fill="#008d71"/>
    <path id="Path_2692" data-name="Path 2692" d="M429.151,397.273c.335,0,.6,0,.859,0,3.726.033,7.464-.106,11.174.148,3.757.258,6.5,2.555,7.139,5.975a6.46,6.46,0,0,1-3.637,7.375.67.67,0,0,0-.149.1,18.38,18.38,0,0,1,2.525,1.549,7.232,7.232,0,0,1,1.274,9.052,7.934,7.934,0,0,1-6.992,4.042c-3.988.14-7.985.046-11.978.049a.907.907,0,0,1-.216-.064Zm6.106,23.167c1.211,0,2.36,0,3.508,0a11.807,11.807,0,0,0,1.327-.056,3.221,3.221,0,0,0,3.017-3.005,3.026,3.026,0,0,0-2.343-3.335c-1.8-.274-3.639-.258-5.509-.37Zm0-11.837c1.265,0,2.48.032,3.693-.015a5.2,5.2,0,0,0,1.55-.322,2.75,2.75,0,0,0,1.82-2.808,2.612,2.612,0,0,0-2.016-2.723c-1.644-.267-3.333-.266-5.046-.382Z" transform="translate(-529.78 -7.296)" fill="#008d71"/>
    <path id="Path_2693" data-name="Path 2693" d="M259.593,408.874c1.413-1.558,2.935-3.033,4.208-4.7a4.246,4.246,0,0,1,4.159-1.857c1.708.163,3.443.035,5.347.035l-7.723,8.3,7.89,11.5c-2.163,0-4.2-.05-6.228.023a1.782,1.782,0,0,1-1.8-.962c-1.274-2.023-2.639-3.988-4.027-6.066-.665.726-1.3,1.393-1.9,2.1-.119.141-.1.421-.1.636-.008,1.394,0,2.789,0,4.227h-5.944V393.328H259.4v15.5Z" transform="translate(-377.496 -3.883)" fill="#292929"/>
    <path id="Path_2694" data-name="Path 2694" d="M620.76,476.964h-5.325l-.21-1.956a20.718,20.718,0,0,1-1.976,1.613c-2.35,1.5-7.432,1.455-9.6-2.059-2.142-3.48-.3-7.707,3.882-8.714,1.782-.429,3.618-.64,5.429-.95.153-.026.3-.056.458-.078a1.348,1.348,0,0,0,1.285-.978,1.7,1.7,0,0,0-.492-1.7,3.454,3.454,0,0,0-3.474-.713,3.019,3.019,0,0,0-2.229,2.242c-.027.083-.021.177-.043.262a1.9,1.9,0,0,1-.1.239c-.855-.167-1.717-.331-2.578-.5-.844-.17-1.685-.349-2.577-.535a6.15,6.15,0,0,1,1.432-3.459,7.982,7.982,0,0,1,4.7-2.8,12.049,12.049,0,0,1,6.87.439,6.506,6.506,0,0,1,4.381,6.3c.1,2.747.017,5.5.04,8.25C620.653,473.546,620.717,475.227,620.76,476.964Zm-6.017-8.626c-.7.105-1.367.168-2.011.309a24.473,24.473,0,0,0-3.062.78c-.749.269-.928,1.006-.913,1.765a1.884,1.884,0,0,0,.975,1.7,3.724,3.724,0,0,0,4.43-1.2A5.3,5.3,0,0,0,614.743,468.338Z" transform="translate(-680.271 -58.709)" fill="#008d71"/>
    <path id="Path_2695" data-name="Path 2695" d="M934.2,476.556H928.87c-.069-.673-.135-1.324-.209-2.047a1.431,1.431,0,0,0-.256.215c-2.242,3.224-8.2,3.114-10.695.263a5.7,5.7,0,0,1,2.429-9.257,49.546,49.546,0,0,1,5.393-1.094c.456-.089.921-.135,1.376-.229a1.48,1.48,0,0,0,.817-2.6,3.377,3.377,0,0,0-3.385-.81,3,3,0,0,0-2.351,2.193c-.056.165-.083.34-.143.6l-5.206-1.049a6.552,6.552,0,0,1,3.257-5.058,10.878,10.878,0,0,1,10.572-.373,6.125,6.125,0,0,1,3.553,5.682c.107,2.636.035,5.278.062,7.918C934.1,472.762,934.157,474.621,934.2,476.556Zm-5.909-8.637c-1.336.208-2.5.356-3.645.581a5.935,5.935,0,0,0-1.61.566,1.745,1.745,0,0,0-.834,1.82,1.857,1.857,0,0,0,1.059,1.65,3.5,3.5,0,0,0,4.755-2.164A17.982,17.982,0,0,0,928.288,467.919Z" transform="translate(-952.016 -58.31)" fill="#008d71"/>
    <path id="Path_2696" data-name="Path 2696" d="M93.777,463.643l-5.1,1.53A11.707,11.707,0,0,0,87,463.127a4.421,4.421,0,0,0-6.912,2.631,7.749,7.749,0,0,0-.01,2.955,4.269,4.269,0,0,0,3.7,3.42,4.169,4.169,0,0,0,4.716-2.407c.088-.169.405-.376.551-.335,1.615.46,3.218.964,4.927,1.489a12.955,12.955,0,0,1-.467,1.32,9.294,9.294,0,0,1-8.754,5.534,10.185,10.185,0,0,1-10.612-8.216c-1.4-7,3.492-12.838,10.341-12.732a9.589,9.589,0,0,1,7.729,3.474A7.708,7.708,0,0,1,93.777,463.643Z" transform="translate(-221.832 -58.89)" fill="#292929"/>
    <path id="Path_2697" data-name="Path 2697" d="M766.739,461.354h16.124c.011.209.03.42.03.631,0,1.065-.062,2.134.022,3.193a2.373,2.373,0,0,1-.8,1.975c-2.62,2.712-5.206,5.456-7.8,8.19-.146.154-.281.32-.512.585h9.2v5.165H766.5c-.016-.25-.043-.485-.044-.719,0-1.22.036-2.442-.017-3.659a2.069,2.069,0,0,1,.667-1.638c2.544-2.661,5.061-5.349,7.586-8.028.134-.142.258-.292.466-.528h-8.421Z" transform="translate(-822.16 -62.852)" fill="#008d71"/>
    <path id="Path_2698" data-name="Path 2698" d="M-.7,481.211v-19.7H5.246v19.7Z" transform="translate(-157.159 -62.986)" fill="#292929"/>
    <path id="Path_2699" data-name="Path 2699" d="M2.3,392.411A3.5,3.5,0,0,1-1.281,395.9a3.565,3.565,0,0,1-3.463-3.567A3.568,3.568,0,0,1-1.2,388.849,3.47,3.47,0,0,1,2.3,392.411Z" transform="translate(-153.655 0)" fill="#008d71"/>
  </g>
</svg>
