<svg xmlns="http://www.w3.org/2000/svg" width="22.977" height="22.977" viewBox="0 0 22.977 22.977">
  <g id="Rounded_Rectangle_1_copy" data-name="Rounded Rectangle 1 copy" transform="translate(-449.011 -2695.008)" fill="none">
    <path d="M459.46,2695.382l10.2,4.739a4.018,4.018,0,0,1,1.952,5.336l-4.738,10.2a4.017,4.017,0,0,1-5.336,1.952l-10.2-4.738a4.017,4.017,0,0,1-1.951-5.336l4.738-10.2A4.018,4.018,0,0,1,459.46,2695.382Z" stroke="none"/>
    <path d="M 457.7708435058594 2698.0078125 C 457.4701538085938 2698.0078125 457.0472412109375 2698.162109375 456.8450012207031 2698.597900390625 L 452.1072998046875 2708.799072265625 C 451.952392578125 2709.1328125 452.0200805664062 2709.43115234375 452.07421875 2709.5791015625 C 452.1281433105469 2709.7265625 452.2681579589844 2709.9970703125 452.6012268066406 2710.151611328125 L 462.803466796875 2714.8896484375 C 462.9400634765625 2714.953125 463.0833740234375 2714.985107421875 463.2294616699219 2714.985107421875 C 463.5299987792969 2714.985107421875 463.9526062011719 2714.830810546875 464.1549377441406 2714.394775390625 L 468.8927001953125 2704.194580078125 C 469.0474548339844 2703.861083984375 468.9797058105469 2703.56298828125 468.925537109375 2703.414794921875 C 468.8715515136719 2703.26708984375 468.7313842773438 2702.996337890625 468.3983764648438 2702.841796875 L 458.1971435546875 2698.103515625 C 458.060302734375 2698.039794921875 457.9169311523438 2698.0078125 457.7708435058594 2698.0078125 M 457.7708435058594 2695.0078125 C 458.3371276855469 2695.0078125 458.9123229980469 2695.1279296875 459.4597778320312 2695.382080078125 L 469.6622314453125 2700.12109375 C 471.6746826171875 2701.054931640625 472.5481567382812 2703.4443359375 471.6139221191406 2705.45751953125 L 466.8757629394531 2715.65869140625 C 466.1956787109375 2717.12353515625 464.74462890625 2717.985107421875 463.2294311523438 2717.985107421875 C 462.6628723144531 2717.985107421875 462.0876770019531 2717.86474609375 461.5400085449219 2717.610595703125 L 451.3376159667969 2712.872314453125 C 449.3250732421875 2711.939208984375 448.4515380859375 2709.5498046875 449.3860778808594 2707.5361328125 L 454.1240844726562 2697.334228515625 C 454.8042297363281 2695.869140625 456.25537109375 2695.0078125 457.7708435058594 2695.0078125 Z" stroke="none" fill="#ed41df"/>
  </g>
</svg>
